<?xml version="1.0" encoding="UTF-8"?>
<svg version="1.1" fill="white" xmlns="http://www.w3.org/2000/svg" width="275" height="183">
<path d="M0 0 C90.75 0 181.5 0 275 0 C275 60.39 275 120.78 275 183 C184.25 183 93.5 183 0 183 C0 122.61 0 62.22 0 0 Z " fill="#7E7E7F" transform="translate(0,0)"/>
<path d="M0 0 C90.75 0 181.5 0 275 0 C275 21.12 275 42.24 275 64 C184.25 64 93.5 64 0 64 C0 42.88 0 21.76 0 0 Z " fill="#615F68" transform="translate(0,0)"/>
<path d="M0 0 C90.75 0 181.5 0 275 0 C275 8.58 275 17.16 275 26 C184.25 26 93.5 26 0 26 C0 17.42 0 8.84 0 0 Z " fill="#5C5A63" transform="translate(0,0)"/>
<path d="M0 0 C90.75 0 181.5 0 275 0 C275 2.97 275 5.94 275 9 C249.48027215 9.02371386 223.96054603 9.04116284 198.44080925 9.05181217 C186.58260598 9.05689562 174.72440974 9.06380671 162.86621094 9.07543945 C108.56872304 9.12767752 54.28880357 9.05153255 0 8 C0 5.36 0 2.72 0 0 Z " fill="#646268" transform="translate(0,40)"/>
<path d="M0 0 C90.75 0 181.5 0 275 0 C275 1.65 275 3.3 275 5 C184.25 5 93.5 5 0 5 C0 3.35 0 1.7 0 0 Z " fill="#54535A" transform="translate(0,21)"/>
<path d="M0 0 C90.75 0 181.5 0 275 0 C275 1.65 275 3.3 275 5 C184.25 5 93.5 5 0 5 C0 3.35 0 1.7 0 0 Z " fill="#706D79" transform="translate(0,16)"/>
<path d="M0 0 C90.75 0 181.5 0 275 0 C275 0.99 275 1.98 275 3 C249.92328148 3.15645925 224.84652375 3.30433842 199.76970005 3.4429636 C188.11670426 3.50756558 176.46373407 3.57464832 164.81079102 3.64819336 C109.86031474 3.99355386 54.94279426 4.09052473 0 3 C0 2.01 0 1.02 0 0 Z " fill="#3C3B41" transform="translate(0,13)"/>
<path d="M0 0 C90.75 0 181.5 0 275 0 C275 0.99 275 1.98 275 3 C184.25 3 93.5 3 0 3 C0 2.01 0 1.02 0 0 Z " fill="#919097" transform="translate(0,64)"/>
<path d="M0 0 C90.75 0 181.5 0 275 0 C275 0.99 275 1.98 275 3 C184.25 3 93.5 3 0 3 C0 2.01 0 1.02 0 0 Z " fill="#47464A" transform="translate(0,61)"/>
<path d="M0 0 C90.75 0 181.5 0 275 0 C275 0.99 275 1.98 275 3 C184.25 3 93.5 3 0 3 C0 2.01 0 1.02 0 0 Z " fill="#86838F" transform="translate(0,40)"/>
<path d="M0 0 C90.75 0 181.5 0 275 0 C275 0.99 275 1.98 275 3 C184.25 3 93.5 3 0 3 C0 2.01 0 1.02 0 0 Z " fill="#797783" transform="translate(0,10)"/>
<path d="M0 0 C90.75 0 181.5 0 275 0 C275 0.99 275 1.98 275 3 C184.25 3 93.5 3 0 3 C0 2.01 0 1.02 0 0 Z " fill="#3E3D43" transform="translate(0,7)"/>
<path d="M0 0 C90.75 0 181.5 0 275 0 C275 0.99 275 1.98 275 3 C184.25 3 93.5 3 0 3 C0 2.01 0 1.02 0 0 Z " fill="#7D7A86" transform="translate(0,4)"/>
<path d="M0 0 C90.75 0 181.5 0 275 0 C275 0.99 275 1.98 275 3 C184.25 3 93.5 3 0 3 C0 2.01 0 1.02 0 0 Z " fill="#8F8D94" transform="translate(0,58)"/>
</svg>
