<?xml version="1.0" encoding="UTF-8"?>
<svg version="1.1" xmlns="http://www.w3.org/2000/svg" width="301" height="167">
<path d="M0 0 C99.33 0 198.66 0 301 0 C301 55.11 301 110.22 301 167 C201.67 167 102.34 167 0 167 C0 111.89 0 56.78 0 0 Z " fill="#808080" transform="translate(0,0)"/>
<path d="M0 0 C99.33 0 198.66 0 301 0 C301 14.85 301 29.7 301 45 C201.67 45 102.34 45 0 45 C0 30.15 0 15.3 0 0 Z " fill="#7F7C7A" transform="translate(0,0)"/>
<path d="M0 0 C99.33 0 198.66 0 301 0 C301 5.28 301 10.56 301 16 C263.80972765 16.15036605 226.61943867 16.29547501 189.42911744 16.4332476 C185.03819403 16.44951854 180.64727079 16.46583429 176.25634766 16.48217773 C174.94512019 16.48705712 174.94512019 16.48705712 173.60740328 16.49203508 C159.45433606 16.54480885 145.30128553 16.60121248 131.14823782 16.6589582 C116.62529309 16.71813232 102.10233728 16.77340415 87.57936382 16.82505554 C78.61834844 16.85704859 69.65735555 16.89208324 60.69636756 16.93101191 C54.55100977 16.95741719 48.4056453 16.98003107 42.26026219 16.99967117 C38.71503741 17.01111312 35.16983948 17.02421935 31.62463951 17.04183006 C27.77825397 17.06089315 23.93186867 17.07196869 20.08544922 17.08229065 C18.9687041 17.08909444 17.85195898 17.09589823 16.7013731 17.10290819 C11.03323373 17.11106865 5.60539364 16.85490247 0 16 C0 10.72 0 5.44 0 0 Z " fill="#69635F" transform="translate(0,0)"/>
<path d="M0 0 C99.33 0 198.66 0 301 0 C301 3.3 301 6.6 301 10 C269.99379024 10.12839653 238.98757694 10.25589192 207.98135854 10.38218227 C204.29518952 10.39719705 200.60902053 10.41221927 196.92285156 10.42724609 C195.8223825 10.43173202 195.8223825 10.43173202 194.69968174 10.43630856 C182.92340945 10.48433066 171.14713971 10.53295134 159.37087084 10.58180541 C147.22755736 10.63216839 135.08424125 10.68185992 122.94092262 10.73096704 C116.14542886 10.758466 109.34993665 10.78626556 102.55444717 10.81480408 C87.8993259 10.87618983 73.24420576 10.93270939 58.5890274 10.97866821 C54.24809113 10.99231251 49.90716911 11.0079047 45.56624603 11.02523804 C40.60586616 11.04475945 35.6454983 11.05916763 30.68509078 11.06938839 C28.9051816 11.07382616 27.12527564 11.0799658 25.34537911 11.08801365 C16.83678254 11.12537325 8.45750025 11.08027859 0 10 C0 6.7 0 3.4 0 0 Z " fill="#6D6968" transform="translate(0,16)"/>
<path d="M0 0 C99.33 0 198.66 0 301 0 C301 2.31 301 4.62 301 7 C201.67 7 102.34 7 0 7 C0 4.69 0 2.38 0 0 Z " fill="#7F7D7B" transform="translate(0,26)"/>
<path d="M0 0 C99.33 0 198.66 0 301 0 C301 2.97 301 5.94 301 9 C298.36 9 295.72 9 293 9 C293 8.01 293 7.02 293 6 C292.00145996 6.16226074 291.00291992 6.32452148 289.97412109 6.49169922 C286.10924162 7.0414006 282.32047982 7.1293931 278.4140625 7.1328125 C277.36223282 7.13424759 277.36223282 7.13424759 276.28915405 7.13571167 C274.81516428 7.13638782 273.34117144 7.13457324 271.8671875 7.13037109 C269.63795109 7.12503102 267.40891761 7.13032704 265.1796875 7.13671875 C258.05758072 7.13970446 251.0654927 7.00479919 244 6 C244 5.34 244 4.68 244 4 C243.01 4.33 242.02 4.66 241 5 C238.34105893 5.08494728 235.70914623 5.11594796 233.05078125 5.09765625 C232.27816452 5.0962413 231.50554779 5.09482635 230.70951843 5.09336853 C228.24380611 5.08777466 225.77818485 5.07522333 223.3125 5.0625 C221.63997527 5.05748421 219.96744912 5.05292144 218.29492188 5.04882812 C214.19657954 5.03780724 210.09830521 5.02054684 206 5 C206 4.67 206 4.34 206 4 C208.97 4 211.94 4 215 4 C215 3.34 215 2.68 215 2 C214.02774837 2.24377963 214.02774837 2.24377963 213.03585529 2.49248409 C209.15665494 3.14098532 205.34626257 3.13448216 201.42631531 3.12025452 C200.13358813 3.12153615 200.13358813 3.12153615 198.81474525 3.12284368 C195.92815209 3.12449026 193.0416171 3.11899055 190.1550293 3.11352539 C188.08535259 3.11324332 186.01567579 3.11340165 183.94599915 3.1139679 C178.32663098 3.11425508 172.70728411 3.1083711 167.0879209 3.10139394 C161.21558219 3.09514726 155.34324301 3.09455556 149.47090149 3.09336853 C138.35044956 3.0902591 127.23000744 3.08205092 116.10955983 3.07201904 C103.44946841 3.06084587 90.78937653 3.05534441 78.1292814 3.05032361 C52.08618216 3.03986801 26.04309163 3.02227605 0 3 C0 2.01 0 1.02 0 0 Z " fill="#646160" transform="translate(0,0)"/>
<path d="M0 0 C99.33 0 198.66 0 301 0 C301 0.99 301 1.98 301 3 C264.67622418 3.15059439 228.35243038 3.29562602 192.02860304 3.4332476 C187.73553989 3.44951765 183.44247693 3.46583352 179.14941406 3.48217773 C178.29477997 3.48543066 177.44014588 3.48868358 176.55961378 3.49203508 C162.74039221 3.54474324 148.92118816 3.60115966 135.10198705 3.6589582 C120.91123761 3.71822776 106.72047659 3.77348513 92.52969706 3.82505554 C83.78059353 3.85697579 75.03151378 3.89198663 66.28243901 3.93101191 C60.27440023 3.95751031 54.26635449 3.98009454 48.2582892 3.99967117 C44.79738125 4.01106156 41.33650171 4.02411005 37.87561989 4.04183006 C11.18585756 4.17205924 11.18585756 4.17205924 0 3 C0 2.01 0 1.02 0 0 Z " fill="#555352" transform="translate(0,33)"/>
<path d="M0 0 C99.33 0 198.66 0 301 0 C301 0.99 301 1.98 301 3 C263.80972799 3.15044443 226.61943863 3.29547501 189.42911744 3.4332476 C185.03819403 3.44951854 180.64727079 3.46583429 176.25634766 3.48217773 C174.94512019 3.48705712 174.94512019 3.48705712 173.60740328 3.49203508 C159.45433606 3.54480885 145.30128553 3.60121248 131.14823782 3.6589582 C116.62529309 3.71813232 102.10233728 3.77340415 87.57936382 3.82505554 C78.61834844 3.85704859 69.65735555 3.89208324 60.69636756 3.93101191 C54.55100977 3.95741719 48.4056453 3.98003107 42.26026219 3.99967117 C38.71503741 4.01111312 35.16983948 4.02421935 31.62463951 4.04183006 C27.77825397 4.06089315 23.93186867 4.07196869 20.08544922 4.08229065 C18.9687041 4.08909444 17.85195898 4.09589823 16.7013731 4.10290819 C11.03323373 4.11106865 5.60539364 3.85490247 0 3 C0 2.01 0 1.02 0 0 Z " fill="#555250" transform="translate(0,13)"/>
<path d="M0 0 C99.33 0 198.66 0 301 0 C301 0.99 301 1.98 301 3 C201.67 3 102.34 3 0 3 C0 2.01 0 1.02 0 0 Z " fill="#54504E" transform="translate(0,45)"/>
<path d="M0 0 C99.33 0 198.66 0 301 0 C301 0.99 301 1.98 301 3 C201.67 3 102.34 3 0 3 C0 2.01 0 1.02 0 0 Z " fill="#A9A4A2" transform="translate(0,16)"/>
<path d="M0 0 C99.33 0 198.66 0 301 0 C301 0.99 301 1.98 301 3 C201.67 3 102.34 3 0 3 C0 2.01 0 1.02 0 0 Z " fill="#A9A6A5" transform="translate(0,36)"/>
<path d="M0 0 C99.33 0 198.66 0 301 0 C301 0.99 301 1.98 301 3 C201.67 3 102.34 3 0 3 C0 2.01 0 1.02 0 0 Z " fill="#A9A7A6" transform="translate(0,26)"/>
<path d="M0 0 C0 0.66 0 1.32 0 2 C9.57 2 19.14 2 29 2 C29 2.66 29 3.32 29 4 C31.31 4 33.62 4 36 4 C36 4.33 36 4.66 36 5 C-19.44 5 -74.88 5 -132 5 C-132 4.67 -132 4.34 -132 4 C-173.085 3.505 -173.085 3.505 -215 3 C-215 2.34 -215 1.68 -215 1 C-192.28305133 0.86835415 -169.566096 0.73791655 -146.84913254 0.60884857 C-136.29704212 0.54886913 -125.74495408 0.48852037 -115.19287109 0.42724609 C-105.97661334 0.37372975 -96.76035162 0.32096337 -87.54408479 0.26903296 C-82.68150407 0.24160954 -77.81892584 0.21385473 -72.95635223 0.18519592 C-48.637271 0.04214852 -24.31951369 -0.03212995 0 0 Z " fill="#56504D" transform="translate(215,2)"/>
<path d="M0 0 C22.76534439 -0.04667791 45.53068092 -0.08196817 68.29606342 -0.10362434 C78.86593028 -0.11394602 89.43576744 -0.12802334 100.00561523 -0.15087891 C109.21606614 -0.17078554 118.42649554 -0.18370995 127.63696736 -0.18817699 C132.51584642 -0.190789 137.39466395 -0.19694679 142.27352333 -0.21146011 C146.86251333 -0.22500098 151.45141626 -0.22922975 156.04042435 -0.22621536 C157.72751653 -0.2267671 159.41461153 -0.23076531 161.10168648 -0.23841095 C163.39975233 -0.2483176 165.69748664 -0.24598469 167.99555969 -0.24050903 C169.92717689 -0.24327441 169.92717689 -0.24327441 171.89781666 -0.24609566 C175 0 175 0 178 2 C175.03674256 3.48162872 172.3858698 3.1226073 169.07785034 3.12025452 C168.35743628 3.12110894 167.63702221 3.12196337 166.89477742 3.12284368 C164.46872645 3.12449736 162.04274387 3.11897895 159.61669922 3.11352539 C157.88243613 3.11324347 156.14817293 3.11340135 154.41390991 3.1139679 C149.69516019 3.11425567 144.9764357 3.10836209 140.25769186 3.10139394 C135.3302533 3.09515716 130.40281421 3.09455634 125.47537231 3.09336853 C116.13978434 3.09025617 106.80420802 3.08204407 97.46862519 3.07201904 C86.84242223 3.06085494 76.21621872 3.0553467 65.59001136 3.05032361 C43.72666772 3.03986138 21.86333459 3.02226378 0 3 C0 2.01 0 1.02 0 0 Z " fill="#6E6C6A" transform="translate(0,0)"/>
<path d="M0 0 C28.05 0 56.1 0 85 0 C84.67 0.99 84.34 1.98 84 3 C56.28 3 28.56 3 0 3 C0 2.01 0 1.02 0 0 Z " fill="#A39188" transform="translate(0,0)"/>
<path d="M0 0 C24.75 0 49.5 0 75 0 C69.21302887 5.78697113 51.4920031 3.08523358 43.84765625 3.09765625 C39.25954637 3.09544312 34.67151784 3.08417002 30.08343506 3.06866455 C26.68388496 3.05829475 23.2843271 3.05383814 19.88476562 3.04882812 C13.25649065 3.03789424 6.62824958 3.02122942 0 3 C0 2.01 0 1.02 0 0 Z " fill="#A18E84" transform="translate(0,10)"/>
<path d="M0 0 C20.13 0 40.26 0 61 0 C60.34 0.99 59.68 1.98 59 3 C56.44369507 3.36076355 56.44369507 3.36076355 53.17333984 3.34057617 C51.95222504 3.34034958 50.73111023 3.34012299 49.47299194 3.33988953 C48.13563677 3.32456852 46.7982853 3.30892051 45.4609375 3.29296875 C44.09616562 3.28737422 42.73138772 3.28310344 41.36660767 3.28010559 C37.77269893 3.2686454 34.17915333 3.23916871 30.58538818 3.20599365 C26.9189546 3.17531771 23.2524624 3.16160559 19.5859375 3.14648438 C12.39045936 3.11429964 5.19528054 3.06308972 -2 3 C-1.34 2.67 -0.68 2.34 0 2 C0 1.34 0 0.68 0 0 Z " fill="#343130" transform="translate(222,9)"/>
<path d="M0 0 C11.55 0 23.1 0 35 0 C35 0.33 35 0.66 35 1 C32.03 1 29.06 1 26 1 C26 1.66 26 2.32 26 3 C23.23382437 4.38308781 20.98982 4.11210196 17.8984375 4.09765625 C16.68671875 4.09443359 15.475 4.09121094 14.2265625 4.08789062 C12.95554688 4.07951172 11.68453125 4.07113281 10.375 4.0625 C9.09625 4.05798828 7.8175 4.05347656 6.5 4.04882812 C3.33328708 4.03701203 0.16666644 4.02053815 -3 4 C-2.34 3.67 -1.68 3.34 -1 3 C-0.67 2.01 -0.34 1.02 0 0 Z " fill="#454343" transform="translate(196,8)"/>
<path d="M0 0 C10.56 0 21.12 0 32 0 C32 0.66 32 1.32 32 2 C28.88045872 3.55977064 25.57040616 3.12104126 22.1484375 3.09765625 C21.37440582 3.0962413 20.60037415 3.09482635 19.80288696 3.09336853 C17.32688558 3.08776403 14.85097412 3.07521083 12.375 3.0625 C10.69791797 3.05748558 9.02083453 3.05292257 7.34375 3.04882812 C3.22913194 3.03779315 -0.88541878 3.02052554 -5 3 C-5 2.67 -5 2.34 -5 2 C-3.35 2 -1.7 2 0 2 C0 1.34 0 0.68 0 0 Z " fill="#312F2E" transform="translate(148,9)"/>
<path d="M0 0 C1.02787125 0.00212242 1.02787125 0.00212242 2.07650757 0.00428772 C4.26719511 0.0098895 6.4577808 0.02244219 8.6484375 0.03515625 C10.13281102 0.04017103 11.61718615 0.04473397 13.1015625 0.04882812 C16.74222065 0.05985948 20.38281914 0.07712526 24.0234375 0.09765625 C24.0234375 1.08765625 24.0234375 2.07765625 24.0234375 3.09765625 C19.64519833 3.14703774 15.26710604 3.18336665 10.88867188 3.20751953 C9.3987343 3.21758668 7.90881653 3.23124143 6.41894531 3.24853516 C4.27924722 3.27275278 2.13980997 3.28413189 0 3.29296875 C-1.28825684 3.30344238 -2.57651367 3.31391602 -3.90380859 3.32470703 C-6.9765625 3.09765625 -6.9765625 3.09765625 -8.9765625 1.09765625 C-6.00296801 -0.389141 -3.31357071 -0.0134698 0 0 Z " fill="#747271" transform="translate(276.9765625,-0.09765625)"/>
<path d="M0 0 C7.75493514 -0.09928082 15.31068715 -0.06059488 23 1 C23 1.99 23 2.98 23 4 C10.94723146 4.11114233 -0.97960136 3.94014291 -13 3 C-13 2.67 -13 2.34 -13 2 C-6.565 1.505 -6.565 1.505 0 1 C0 0.67 0 0.34 0 0 Z " fill="#514D4B" transform="translate(278,8)"/>
<path d="M0 0 C11.22 0 22.44 0 34 0 C33.34 0.99 32.68 1.98 32 3 C29.37537756 3.26697888 26.98934067 3.34832984 24.3671875 3.29296875 C23.23943405 3.28660149 23.23943405 3.28660149 22.08889771 3.28010559 C19.68390315 3.2632917 17.27974191 3.22563624 14.875 3.1875 C13.24610584 3.17245659 11.61719856 3.15876758 9.98828125 3.14648438 C5.99186566 3.11337954 1.99607418 3.06158009 -2 3 C-1.34 2.67 -0.68 2.34 0 2 C0 1.34 0 0.68 0 0 Z " fill="#020100" transform="translate(222,9)"/>
<path d="M0 0 C7.92 0 15.84 0 24 0 C23.67 0.99 23.34 1.98 23 3 C14.42 3 5.84 3 -3 3 C-2.01 2.67 -1.02 2.34 0 2 C0 1.34 0 0.68 0 0 Z " fill="#050200" transform="translate(119,9)"/>
<path d="M0 0 C5.61 0.33 11.22 0.66 17 1 C17 1.66 17 2.32 17 3 C11.06 3 5.12 3 -1 3 C-0.67 2.01 -0.34 1.02 0 0 Z M-3 3 C-1 4 -1 4 -1 4 Z " fill="#6B6A69" transform="translate(196,8)"/>
<path d="M0 0 C4.95 0 9.9 0 15 0 C15 0.99 15 1.98 15 3 C9.77254141 4.2063366 5.23471686 3.75612577 0 3 C0 2.01 0 1.02 0 0 Z " fill="#908D8B" transform="translate(133,8)"/>
<path d="M0 0 C1.18851563 0.00902344 2.37703125 0.01804687 3.6015625 0.02734375 C4.51679688 0.03894531 5.43203125 0.05054688 6.375 0.0625 C6.045 1.0525 5.715 2.0425 5.375 3.0625 C1.085 3.0625 -3.205 3.0625 -7.625 3.0625 C-7.955 2.4025 -8.285 1.7425 -8.625 1.0625 C-5.74084117 -0.37957941 -3.20778472 -0.03144887 0 0 Z " fill="#0C0B0A" transform="translate(136.625,8.9375)"/>
<path d="M0 0 C3.3 0 6.6 0 10 0 C10 0.66 10 1.32 10 2 C7.47524538 3.26237731 5.68799534 3.09856404 2.875 3.0625 C1.96492187 3.05347656 1.05484375 3.04445313 0.1171875 3.03515625 C-0.58148438 3.02355469 -1.28015625 3.01195312 -2 3 C-1.34 2.67 -0.68 2.34 0 2 C0 1.34 0 0.68 0 0 Z " fill="#393938" transform="translate(180,9)"/>
<path d="M0 0 C3.3 0 6.6 0 10 0 C10 0.99 10 1.98 10 3 C6.7 3 3.4 3 0 3 C0 2.01 0 1.02 0 0 Z " fill="#858281" transform="translate(291,0)"/>
<path d="M0 0 C4.95 0 9.9 0 15 0 C15 0.99 15 1.98 15 3 C14.01 3 13.02 3 12 3 C12 2.34 12 1.68 12 1 C8.04 1 4.08 1 0 1 C0 0.67 0 0.34 0 0 Z M10 3 C12 4 12 4 12 4 Z " fill="#625E5C" transform="translate(104,8)"/>
</svg>
