<?xml version="1.0" encoding="UTF-8"?>
<svg version="1.1" xmlns="http://www.w3.org/2000/svg" width="242" height="209">
<path d="M0 0 C79.86 0 159.72 0 242 0 C242 68.97 242 137.94 242 209 C162.14 209 82.28 209 0 209 C0 140.03 0 71.06 0 0 Z " fill="#5F6368" transform="translate(0,0)"/>
<path d="M0 0 C79.86 0 159.72 0 242 0 C242 20.13 242 40.26 242 61 C162.14 61 82.28 61 0 61 C0 40.87 0 20.74 0 0 Z " fill="#3F4449" transform="translate(0,148)"/>
<path d="M0 0 C79.86 0 159.72 0 242 0 C242 17.82 242 35.64 242 54 C162.14 54 82.28 54 0 54 C0 36.18 0 18.36 0 0 Z " fill="#474A4F" transform="translate(0,0)"/>
<path d="M0 0 C79.86 0 159.72 0 242 0 C242 8.25 242 16.5 242 25 C191.21310548 25.79992763 140.43018953 26.11143803 89.63765574 26.12283063 C84.29375362 26.12411387 78.94985711 26.12786266 73.60595703 26.13256836 C66.29613928 26.13875731 58.98634002 26.13863212 51.6765213 26.13431931 C48.96632635 26.13286192 46.25614582 26.1335179 43.54595184 26.13615799 C28.98719933 26.14616077 14.53135653 25.92602683 0 25 C0 16.75 0 8.5 0 0 Z " fill="#3B3E42" transform="translate(0,123)"/>
<path d="M0 0 C79.86 0 159.72 0 242 0 C242 8.25 242 16.5 242 25 C162.14 25 82.28 25 0 25 C0 16.75 0 8.5 0 0 Z " fill="#606162" transform="translate(0,184)"/>
<path d="M0 0 C79.86 0 159.72 0 242 0 C242 8.25 242 16.5 242 25 C162.14 25 82.28 25 0 25 C0 16.75 0 8.5 0 0 Z " fill="#737475" transform="translate(0,54)"/>
<path d="M0 0 C79.86 0 159.72 0 242 0 C242 5.94 242 11.88 242 18 C162.14 18 82.28 18 0 18 C0 12.06 0 6.12 0 0 Z " fill="#53575C" transform="translate(0,36)"/>
<path d="M0 0 C79.86 0 159.72 0 242 0 C242 3.96 242 7.92 242 12 C162.14 12 82.28 12 0 12 C0 8.04 0 4.08 0 0 Z " fill="#4A4C4F" transform="translate(0,79)"/>
<path d="M0 0 C79.86 0 159.72 0 242 0 C242 3.63 242 7.26 242 11 C162.14 11 82.28 11 0 11 C0 7.37 0 3.74 0 0 Z " fill="#3C4044" transform="translate(0,0)"/>
<path d="M0 0 C79.86 0 159.72 0 242 0 C242 3.3 242 6.6 242 10 C162.14 10 82.28 10 0 10 C0 6.7 0 3.4 0 0 Z " fill="#4E5256" transform="translate(0,174)"/>
<path d="M0 0 C79.86 0 159.72 0 242 0 C242 3.3 242 6.6 242 10 C162.14 10 82.28 10 0 10 C0 6.7 0 3.4 0 0 Z " fill="#565758" transform="translate(0,54)"/>
<path d="M0 0 C79.86 0 159.72 0 242 0 C242 2.97 242 5.94 242 9 C211.56419617 10.07363831 181.14036542 10.16091796 150.68821764 10.13057256 C145.92768337 10.12583509 141.1671526 10.12350487 136.40661621 10.12231445 C90.93285125 10.10874165 45.4674471 9.78363912 0 9 C0 6.03 0 3.06 0 0 Z " fill="#2A2E32" transform="translate(0,91)"/>
<path d="M0 0 C79.86 0 159.72 0 242 0 C242 2.31 242 4.62 242 7 C162.14 7 82.28 7 0 7 C0 4.69 0 2.38 0 0 Z " fill="#404549" transform="translate(0,148)"/>
<path d="M0 0 C79.86 0 159.72 0 242 0 C242 1.98 242 3.96 242 6 C162.14 6 82.28 6 0 6 C0 4.02 0 2.04 0 0 Z " fill="#333638" transform="translate(0,100)"/>
<path d="M0 0 C79.86 0 159.72 0 242 0 C242 1.65 242 3.3 242 5 C162.14 5 82.28 5 0 5 C0 3.35 0 1.7 0 0 Z " fill="#919293" transform="translate(0,204)"/>
<path d="M0 0 C79.86 0 159.72 0 242 0 C242 1.65 242 3.3 242 5 C162.14 5 82.28 5 0 5 C0 3.35 0 1.7 0 0 Z " fill="#727578" transform="translate(0,54)"/>
<path d="M0 0 C79.86 0 159.72 0 242 0 C242 1.65 242 3.3 242 5 C162.14 5 82.28 5 0 5 C0 3.35 0 1.7 0 0 Z " fill="#46484B" transform="translate(0,49)"/>
<path d="M0 0 C79.86 0 159.72 0 242 0 C242 1.32 242 2.64 242 4 C162.14 4 82.28 4 0 4 C0 2.68 0 1.36 0 0 Z " fill="#757576" transform="translate(0,200)"/>
<path d="M0 0 C79.86 0 159.72 0 242 0 C242 1.32 242 2.64 242 4 C162.14 4 82.28 4 0 4 C0 2.68 0 1.36 0 0 Z " fill="#606365" transform="translate(0,79)"/>
<path d="M0 0 C79.86 0 159.72 0 242 0 C242 0.99 242 1.98 242 3 C191.21332468 3.80749775 140.4300407 4.11143806 89.63765574 4.12283063 C84.29375362 4.12411387 78.94985711 4.12786266 73.60595703 4.13256836 C66.29613928 4.13875731 58.98634002 4.13863212 51.6765213 4.13431931 C48.96632635 4.13286192 46.25614582 4.1335179 43.54595184 4.13615799 C28.99653403 4.14615436 14.51918875 3.98592637 0 3 C0 2.01 0 1.02 0 0 Z " fill="#323539" transform="translate(0,145)"/>
<path d="M0 0 C3.87139502 -0.01648949 7.74276955 -0.02829442 11.61419153 -0.0359993 C12.85932064 -0.04104855 12.85932064 -0.04104855 14.12960386 -0.0461998 C22.74211676 -0.05140276 31.33133887 0.44750522 39.92302942 1.00892258 C39.92302942 1.99892258 39.92302942 2.98892258 39.92302942 4.00892258 C-39.93697058 4.00892258 -119.79697058 4.00892258 -202.07697058 4.00892258 C-202.07697058 3.01892258 -202.07697058 2.02892258 -202.07697058 1.00892258 C-176.39743893 0.87782847 -150.71790393 0.74740799 -125.03836489 0.61777115 C-113.11267389 0.55755183 -101.18698404 0.49711901 -89.26129675 0.43616867 C-78.85673235 0.38299311 -68.45216594 0.33023332 -58.04759699 0.27795553 C-52.54771191 0.25030728 -47.047828 0.22246257 -41.54794645 0.1941185 C-29.14512291 0.13030302 -16.7422959 0.06909767 -4.33941174 0.01821136 C-2.89294061 0.01227266 -1.44646997 0.00621397 0 0 Z " fill="#292D30" transform="translate(202.07697057724,153.9910774230957)"/>
<path d="M0 0 C79.86 0 159.72 0 242 0 C242 0.99 242 1.98 242 3 C214.30812184 3.95370134 186.65912032 4.07914315 158.9534955 3.89946485 C153.33762191 3.86436625 147.72171261 3.83628263 142.10580444 3.80735779 C131.53891458 3.75191645 120.97206936 3.69044506 110.40522707 3.62663645 C98.34655988 3.55412576 86.28785763 3.48859739 74.22914815 3.42356598 C49.48605325 3.28997717 24.74301315 3.14791093 0 3 C0 2.01 0 1.02 0 0 Z " fill="#272A2E" transform="translate(0,91)"/>
<path d="M0 0 C79.86 0 159.72 0 242 0 C242 0.99 242 1.98 242 3 C162.14 3 82.28 3 0 3 C0 2.01 0 1.02 0 0 Z " fill="#4C4C4D" transform="translate(0,193)"/>
<path d="M0 0 C79.86 0 159.72 0 242 0 C242 0.99 242 1.98 242 3 C162.14 3 82.28 3 0 3 C0 2.01 0 1.02 0 0 Z " fill="#939597" transform="translate(0,190)"/>
<path d="M0 0 C79.86 0 159.72 0 242 0 C242 0.99 242 1.98 242 3 C162.14 3 82.28 3 0 3 C0 2.01 0 1.02 0 0 Z " fill="#3D3F41" transform="translate(0,181)"/>
<path d="M0 0 C79.86 0 159.72 0 242 0 C242 0.99 242 1.98 242 3 C162.14 3 82.28 3 0 3 C0 2.01 0 1.02 0 0 Z " fill="#343639" transform="translate(0,171)"/>
<path d="M0 0 C79.86 0 159.72 0 242 0 C242 0.99 242 1.98 242 3 C162.14 3 82.28 3 0 3 C0 2.01 0 1.02 0 0 Z " fill="#707479" transform="translate(0,168)"/>
<path d="M0 0 C79.86 0 159.72 0 242 0 C242 0.99 242 1.98 242 3 C162.14 3 82.28 3 0 3 C0 2.01 0 1.02 0 0 Z " fill="#3B3D3F" transform="translate(0,165)"/>
<path d="M0 0 C79.86 0 159.72 0 242 0 C242 0.99 242 1.98 242 3 C162.14 3 82.28 3 0 3 C0 2.01 0 1.02 0 0 Z " fill="#686D72" transform="translate(0,142)"/>
<path d="M0 0 C79.86 0 159.72 0 242 0 C242 0.99 242 1.98 242 3 C162.14 3 82.28 3 0 3 C0 2.01 0 1.02 0 0 Z " fill="#343639" transform="translate(0,139)"/>
<path d="M0 0 C79.86 0 159.72 0 242 0 C242 0.99 242 1.98 242 3 C162.14 3 82.28 3 0 3 C0 2.01 0 1.02 0 0 Z " fill="#64696F" transform="translate(0,136)"/>
<path d="M0 0 C79.86 0 159.72 0 242 0 C242 0.99 242 1.98 242 3 C162.14 3 82.28 3 0 3 C0 2.01 0 1.02 0 0 Z " fill="#676C71" transform="translate(0,120)"/>
<path d="M0 0 C79.86 0 159.72 0 242 0 C242 0.99 242 1.98 242 3 C162.14 3 82.28 3 0 3 C0 2.01 0 1.02 0 0 Z " fill="#353739" transform="translate(0,117)"/>
<path d="M0 0 C79.86 0 159.72 0 242 0 C242 0.99 242 1.98 242 3 C162.14 3 82.28 3 0 3 C0 2.01 0 1.02 0 0 Z " fill="#686D72" transform="translate(0,114)"/>
<path d="M0 0 C79.86 0 159.72 0 242 0 C242 0.99 242 1.98 242 3 C162.14 3 82.28 3 0 3 C0 2.01 0 1.02 0 0 Z " fill="#343639" transform="translate(0,111)"/>
<path d="M0 0 C79.86 0 159.72 0 242 0 C242 0.99 242 1.98 242 3 C162.14 3 82.28 3 0 3 C0 2.01 0 1.02 0 0 Z " fill="#898C8E" transform="translate(0,76)"/>
<path d="M0 0 C79.86 0 159.72 0 242 0 C242 0.99 242 1.98 242 3 C162.14 3 82.28 3 0 3 C0 2.01 0 1.02 0 0 Z " fill="#48494A" transform="translate(0,73)"/>
<path d="M0 0 C79.86 0 159.72 0 242 0 C242 0.99 242 1.98 242 3 C162.14 3 82.28 3 0 3 C0 2.01 0 1.02 0 0 Z " fill="#62676D" transform="translate(0,46)"/>
<path d="M0 0 C79.86 0 159.72 0 242 0 C242 0.99 242 1.98 242 3 C162.14 3 82.28 3 0 3 C0 2.01 0 1.02 0 0 Z " fill="#303336" transform="translate(0,43)"/>
<path d="M0 0 C79.86 0 159.72 0 242 0 C242 0.99 242 1.98 242 3 C162.14 3 82.28 3 0 3 C0 2.01 0 1.02 0 0 Z " fill="#303235" transform="translate(0,33)"/>
<path d="M0 0 C79.86 0 159.72 0 242 0 C242 0.99 242 1.98 242 3 C162.14 3 82.28 3 0 3 C0 2.01 0 1.02 0 0 Z " fill="#5E646A" transform="translate(0,8)"/>
<path d="M0 0 C79.86 0 159.72 0 242 0 C242 0.99 242 1.98 242 3 C162.14 3 82.28 3 0 3 C0 2.01 0 1.02 0 0 Z " fill="#9C9C9D" transform="translate(0,70)"/>
<path d="M0 0 C79.86 0 159.72 0 242 0 C242 0.99 242 1.98 242 3 C162.14 3 82.28 3 0 3 C0 2.01 0 1.02 0 0 Z " fill="#71757A" transform="translate(0,162)"/>
<path d="M0 0 C79.86 0 159.72 0 242 0 C242 0.99 242 1.98 242 3 C162.14 3 82.28 3 0 3 C0 2.01 0 1.02 0 0 Z " fill="#51585E" transform="translate(0,94)"/>
<path d="M0 0 C79.86 0 159.72 0 242 0 C242 0.99 242 1.98 242 3 C162.14 3 82.28 3 0 3 C0 2.01 0 1.02 0 0 Z " fill="#74787C" transform="translate(0,178)"/>
<path d="M0 0 C79.86 0 159.72 0 242 0 C242 0.99 242 1.98 242 3 C162.14 3 82.28 3 0 3 C0 2.01 0 1.02 0 0 Z " fill="#717579" transform="translate(0,88)"/>
<path d="M0 0 C79.86 0 159.72 0 242 0 C242 0.99 242 1.98 242 3 C162.14 3 82.28 3 0 3 C0 2.01 0 1.02 0 0 Z " fill="#5E6368" transform="translate(0,100)"/>
<path d="M0 0 C79.86 0 159.72 0 242 0 C242 0.99 242 1.98 242 3 C162.14 3 82.28 3 0 3 C0 2.01 0 1.02 0 0 Z " fill="#909293" transform="translate(0,184)"/>
<path d="M0 0 C79.86 0 159.72 0 242 0 C242 0.99 242 1.98 242 3 C162.14 3 82.28 3 0 3 C0 2.01 0 1.02 0 0 Z " fill="#64696E" transform="translate(0,148)"/>
<path d="M0 0 C79.86 0 159.72 0 242 0 C242 0.99 242 1.98 242 3 C162.14 3 82.28 3 0 3 C0 2.01 0 1.02 0 0 Z " fill="#666A6F" transform="translate(0,128)"/>
<path d="M0 0 C79.86 0 159.72 0 242 0 C242 0.99 242 1.98 242 3 C221.52121087 3.02384874 201.04242473 3.04122438 180.56362438 3.05181217 C171.04509694 3.05686896 161.52657841 3.06372358 152.00805664 3.07543945 C101.32966936 3.13658804 50.67177102 2.84405461 0 2 C0 1.34 0 0.68 0 0 Z " fill="#494F56" transform="translate(0,0)"/>
<path d="M0 0 C34.66942966 -0.08217864 69.33261466 0.14026454 104.00042725 0.46356201 C110.68711979 0.525448 117.37383421 0.58486549 124.06054688 0.64453125 C137.0403863 0.76069431 150.02020142 0.87936274 163 1 C163 1.33 163 1.66 163 2 C146.65039675 3.27521447 130.28167419 3.13165198 113.89519072 3.10139394 C109.87939852 3.09506538 105.86360525 3.09454919 101.84780884 3.09336853 C94.27292583 3.09028285 86.69805756 3.08210741 79.12318099 3.07201904 C70.48689607 3.0607712 61.85061038 3.05532579 53.21431994 3.05032361 C35.47620499 3.03992191 17.73810369 3.02237701 0 3 C0 2.01 0 1.02 0 0 Z " fill="#565A5E" transform="translate(0,30)"/>
</svg>
