<?xml version="1.0" encoding="UTF-8"?>
<svg version="1.1" xmlns="http://www.w3.org/2000/svg" >
<path d="M0 0 C74.25 0 148.5 0 225 0 C225 74.25 225 148.5 225 225 C150.75 225 76.5 225 0 225 C0 150.75 0 76.5 0 0 Z " fill="#7F7F7F" transform="translate(0,0)"/>
<path d="M0 0 C74.25 0 148.5 0 225 0 C225 18.48 225 36.96 225 56 C202.30813463 56.15453807 179.61625337 56.30352119 156.92429066 56.4429636 C146.38252535 56.50791112 135.84078477 56.57513896 125.29907227 56.64819336 C116.08604662 56.71203363 106.87300337 56.7711295 97.6599142 56.82505554 C92.80428654 56.85362826 87.94869508 56.88421565 83.09311867 56.92053413 C55.37028248 57.125845 27.71773228 56.71181725 0 56 C0 37.52 0 19.04 0 0 Z " fill="#536773" transform="translate(0,0)"/>
<path d="M0 0 C74.25 0 148.5 0 225 0 C225 8.91 225 17.82 225 27 C202.30814282 27.15529258 179.61625109 27.3035212 156.92429066 27.4429636 C146.38252535 27.50791112 135.84078477 27.57513896 125.29907227 27.64819336 C116.08604662 27.71203363 106.87300337 27.7711295 97.6599142 27.82505554 C92.80428654 27.85362826 87.94869508 27.88421565 83.09311867 27.92053413 C55.37673884 28.12579718 27.70709916 27.74399753 0 27 C0 18.09 0 9.18 0 0 Z " fill="#3C4850" transform="translate(0,29)"/>
<path d="M0 0 C74.25 0 148.5 0 225 0 C225 3.63 225 7.26 225 11 C203.81263042 11.20348356 182.62514636 11.39035579 161.4375 11.5625 C160.65438603 11.56888284 159.87127207 11.57526568 159.06442738 11.58184195 C117.66357258 11.91827465 76.27534903 12.13851327 34.875 11.5625 C33.95280041 11.54968616 33.03060081 11.53687233 32.08045578 11.5236702 C21.38652914 11.3730233 10.69310046 11.20128852 0 11 C0 7.37 0 3.74 0 0 Z " fill="#47555E" transform="translate(0,29)"/>
<path d="M0 0 C74.25 0 148.5 0 225 0 C225 3.63 225 7.26 225 11 C150.75 11 76.5 11 0 11 C0 7.37 0 3.74 0 0 Z " fill="#455660" transform="translate(0,18)"/>
<path d="M0 0 C74.25 0 148.5 0 225 0 C225 2.31 225 4.62 225 7 C186.02965939 7.82855391 147.06471379 8.11148779 108.0859108 8.12338257 C104.68962546 8.1249698 101.2933474 8.12850619 97.89706421 8.13256836 C65.25368058 8.16721461 32.63479061 7.74423436 0 7 C0 4.69 0 2.38 0 0 Z " fill="#566A77" transform="translate(0,11)"/>
<path d="M0 0 C74.25 0 148.5 0 225 0 C225 2.31 225 4.62 225 7 C202.30814492 7.15557021 179.61625078 7.3035212 156.92429066 7.4429636 C146.38252535 7.50791112 135.84078477 7.57513896 125.29907227 7.64819336 C116.08604662 7.71203363 106.87300337 7.7711295 97.6599142 7.82505554 C92.80428654 7.85362826 87.94869508 7.88421565 83.09311867 7.92053413 C55.37761347 8.1257907 27.70594712 7.75563247 0 7 C0 4.69 0 2.38 0 0 Z " fill="#658091" transform="translate(0,49)"/>
<path d="M0 0 C74.25 0 148.5 0 225 0 C225 1.32 225 2.64 225 4 C150.75 4 76.5 4 0 4 C0 2.68 0 1.36 0 0 Z " fill="#526673" transform="translate(0,0)"/>
<path d="M0 0 C74.25 0 148.5 0 225 0 C225 0.99 225 1.98 225 3 C202.60345525 3.15568025 180.20687043 3.30362338 157.81021786 3.4429636 C147.40527164 3.50786793 137.0003512 3.57510743 126.59545898 3.64819336 C36.89693397 4.27585704 36.89693397 4.27585704 0 3 C0 2.01 0 1.02 0 0 Z " fill="#35454F" transform="translate(0,49)"/>
<path d="M0 0 C74.25 0 148.5 0 225 0 C225 0.99 225 1.98 225 3 C203.81263632 3.20399441 182.62514506 3.3903558 161.4375 3.5625 C160.65438603 3.56888284 159.87127207 3.57526568 159.06442738 3.58184195 C117.66357258 3.91827465 76.27534903 4.13851327 34.875 3.5625 C33.95280041 3.54968616 33.03060081 3.53687233 32.08045578 3.5236702 C21.38652914 3.3730233 10.69310046 3.20128852 0 3 C0 2.01 0 1.02 0 0 Z " fill="#3C484F" transform="translate(0,37)"/>
<path d="M0 0 C74.25 0 148.5 0 225 0 C225 0.99 225 1.98 225 3 C150.75 3 76.5 3 0 3 C0 2.01 0 1.02 0 0 Z " fill="#38454D" transform="translate(0,11)"/>
<path d="M0 0 C74.25 0 148.5 0 225 0 C225 0.99 225 1.98 225 3 C150.75 3 76.5 3 0 3 C0 2.01 0 1.02 0 0 Z " fill="#708A9A" transform="translate(0,4)"/>
<path d="M0 0 C74.25 0 148.5 0 225 0 C225 0.99 225 1.98 225 3 C150.75 3 76.5 3 0 3 C0 2.01 0 1.02 0 0 Z " fill="#7A8F9C" transform="translate(0,34)"/>
<path d="M0 0 C74.25 0 148.5 0 225 0 C225 0.99 225 1.98 225 3 C150.75 3 76.5 3 0 3 C0 2.01 0 1.02 0 0 Z " fill="#7C909C" transform="translate(0,40)"/>
<path d="M0 0 C74.25 0 148.5 0 225 0 C225 0.99 225 1.98 225 3 C150.75 3 76.5 3 0 3 C0 2.01 0 1.02 0 0 Z " fill="#778D9A" transform="translate(0,46)"/>
<path d="M0 0 C74.25 0 148.5 0 225 0 C225 0.99 225 1.98 225 3 C150.75 3 76.5 3 0 3 C0 2.01 0 1.02 0 0 Z " fill="#7C8E9A" transform="translate(0,18)"/>
<path d="M0 0 C74.25 0 148.5 0 225 0 C225 0.99 225 1.98 225 3 C150.75 3 76.5 3 0 3 C0 2.01 0 1.02 0 0 Z " fill="#7E8F9A" transform="translate(0,26)"/>
<path d="M0 0 C28.93730637 -0.02845678 57.87264165 0.02873776 86.80942869 0.20192909 C91.70323869 0.23092454 96.59705744 0.25836975 101.49087524 0.28601074 C110.67270985 0.33809068 119.85453634 0.39147484 129.03636038 0.4453826 C139.52573427 0.50689951 150.0151168 0.5668787 160.50450015 0.62675762 C182.00300981 0.74951538 203.50150847 0.87411032 225 1 C225 1.33 225 1.66 225 2 C202.30814492 2.15557021 179.61625078 2.3035212 156.92429066 2.4429636 C146.38252535 2.50791112 135.84078477 2.57513896 125.29907227 2.64819336 C116.08604662 2.71203363 106.87300337 2.7711295 97.6599142 2.82505554 C92.80428654 2.85362826 87.94869508 2.88421565 83.09311867 2.92053413 C55.37761347 3.1257907 27.70594712 2.75563247 0 2 C0 1.34 0 0.68 0 0 Z " fill="#282F33" transform="translate(0,54)"/>
</svg>
