<?xml version="1.0" encoding="UTF-8"?>
<svg version="1.1" xmlns="http://www.w3.org/2000/svg" width="100" height="100">
<path d="M0 0 C74.25 0 148.5 0 225 0 C225 74.25 225 148.5 225 225 C150.75 225 76.5 225 0 225 C0 150.75 0 76.5 0 0 Z " fill="#7F7F7F" transform="translate(0,0)"/>
<path d="M0 0 C74.25 0 148.5 0 225 0 C225 11.88 225 23.76 225 36 C177.58864329 36.94619464 130.22180143 37.0141563 82.80384243 36.62664449 C73.7361428 36.55285387 64.66838436 36.48799816 55.60061419 36.42356598 C37.06699666 36.29168949 18.53349261 36.14846185 0 36 C0 24.12 0 12.24 0 0 Z " fill="#4F5959" transform="translate(0,0)"/>
<path d="M0 0 C74.25 0 148.5 0 225 0 C225 3.63 225 7.26 225 11 C150.75 11 76.5 11 0 11 C0 7.37 0 3.74 0 0 Z " fill="#646F6D" transform="translate(0,0)"/>
<path d="M0 0 C74.25 0 148.5 0 225 0 C225 2.97 225 5.94 225 9 C177.5906705 9.9776259 130.22010306 10.01414242 82.80384243 9.62664449 C73.7361428 9.55285387 64.66838436 9.48799816 55.60061419 9.42356598 C37.06700029 9.29168952 18.53347871 9.14962949 0 9 C0 6.03 0 3.06 0 0 Z " fill="#59635B" transform="translate(0,27)"/>
<path d="M0 0 C74.25 0 148.5 0 225 0 C225 1.65 225 3.3 225 5 C150.75 5 76.5 5 0 5 C0 3.35 0 1.7 0 0 Z " fill="#93918A" transform="translate(0,36)"/>
<path d="M0 0 C74.25 0 148.5 0 225 0 C225 1.65 225 3.3 225 5 C150.75 5 76.5 5 0 5 C0 3.35 0 1.7 0 0 Z " fill="#768381" transform="translate(0,22)"/>
<path d="M0 0 C74.25 0 148.5 0 225 0 C225 1.32 225 2.64 225 4 C150.75 4 76.5 4 0 4 C0 2.68 0 1.36 0 0 Z " fill="#656E6D" transform="translate(0,0)"/>
<path d="M0 0 C74.25 0 148.5 0 225 0 C225 0.99 225 1.98 225 3 C212.7672837 3.13189484 200.53455315 3.26237608 188.30180359 3.39115143 C182.61900099 3.45101716 176.93620399 3.51133345 171.25341797 3.57275391 C165.74852632 3.63223383 160.24362237 3.69043308 154.7387085 3.74781799 C152.65964289 3.76970174 150.58058174 3.79201368 148.50152588 3.81480408 C125.30008624 4.06850551 102.10760797 4.01745599 78.90625 3.78125 C76.60884703 3.75872755 74.31144303 3.73630941 72.01403809 3.71398926 C66.05654869 3.65583744 60.099074 3.59629843 54.14160156 3.53643799 C48.02670119 3.47525209 41.91178755 3.41542302 35.796875 3.35546875 C23.86457021 3.23828283 11.93228055 3.11962668 0 3 C0 2.01 0 1.02 0 0 Z " fill="#424A4A" transform="translate(0,19)"/>
<path d="M0 0 C74.25 0 148.5 0 225 0 C225 0.99 225 1.98 225 3 C203.04642085 3.15585116 181.09280004 3.30378149 159.13910866 3.4429636 C148.93939107 3.50780108 138.73970043 3.57500679 128.54003906 3.64819336 C40.72450511 4.27585704 40.72450511 4.27585704 0 3 C0 2.01 0 1.02 0 0 Z " fill="#51514D" transform="translate(0,41)"/>
<path d="M0 0 C74.25 0 148.5 0 225 0 C225 0.99 225 1.98 225 3 C150.75 3 76.5 3 0 3 C0 2.01 0 1.02 0 0 Z " fill="#3A4342" transform="translate(0,27)"/>
<path d="M0 0 C74.25 0 148.5 0 225 0 C225 0.99 225 1.98 225 3 C150.75 3 76.5 3 0 3 C0 2.01 0 1.02 0 0 Z " fill="#A1A099" transform="translate(0,44)"/>
<path d="M0 0 C74.25 0 148.5 0 225 0 C225 0.99 225 1.98 225 3 C150.75 3 76.5 3 0 3 C0 2.01 0 1.02 0 0 Z " fill="#889493" transform="translate(0,16)"/>
<path d="M0 0 C74.25 0 148.5 0 225 0 C225 0.99 225 1.98 225 3 C150.75 3 76.5 3 0 3 C0 2.01 0 1.02 0 0 Z " fill="#879393" transform="translate(0,8)"/>
</svg>
