<?xml version="1.0" encoding="UTF-8"?>
<svg version="1.1" xmlns="http://www.w3.org/2000/svg" >
<path d="M0 0 C99 0 198 0 300 0 C300 55.44 300 110.88 300 168 C201 168 102 168 0 168 C0 112.56 0 57.12 0 0 Z " fill="#FBFBFB" transform="translate(0,0)"/>
<path d="M0 0 C4.94734691 2.85891768 8.46981588 7.06703562 10.625 12.375 C11.51417972 19.45099865 11.54901921 25.85043138 7.19140625 31.72265625 C2.39491215 36.78229965 -2.54875107 39.49279623 -9.5625 39.75 C-16.22629512 39.6795768 -20.2049012 37.46422893 -24.90625 32.8828125 C-29.61787798 27.59592762 -30.91504908 22.87597069 -30.75 15.93359375 C-29.75964083 9.17645564 -25.07982788 4.70231184 -20.0234375 0.50390625 C-14.49706939 -3.28073921 -5.87956177 -2.69899883 0 0 Z " fill="#F8F9F9" transform="translate(86.375,54.625)"/>
<path d="M0 0 C4.94734691 2.85891768 8.46981588 7.06703562 10.625 12.375 C11.51417972 19.45099865 11.54901921 25.85043138 7.19140625 31.72265625 C2.39491215 36.78229965 -2.54875107 39.49279623 -9.5625 39.75 C-16.22629512 39.6795768 -20.2049012 37.46422893 -24.90625 32.8828125 C-29.61787798 27.59592762 -30.91504908 22.87597069 -30.75 15.93359375 C-29.75964083 9.17645564 -25.07982788 4.70231184 -20.0234375 0.50390625 C-14.49706939 -3.28073921 -5.87956177 -2.69899883 0 0 Z M-26.375 10.375 C-28.57777942 14.78055885 -27.82250656 20.58028691 -27.375 25.375 C-26.31959868 27.96050279 -25.27931283 29.29215784 -23.375 31.375 C-22.385 30.715 -21.395 30.055 -20.375 29.375 C-21.365 29.375 -22.355 29.375 -23.375 29.375 C-23.375 28.715 -23.375 28.055 -23.375 27.375 C-21.6171875 28.41666667 -19.859375 29.45833333 -18.1015625 30.5 C-16.40027333 31.52568348 -16.40027333 31.52568348 -14.375 31.375 C-15.73215268 27.30354196 -17.71392455 26.48715891 -21.375 24.375 C-24.1032504 23.59284412 -24.1032504 23.59284412 -26.375 23.375 C-26.045 22.715 -25.715 22.055 -25.375 21.375 C-19.93885928 24.1582093 -15.44234974 26.78283094 -11.375 31.375 C-11.69453919 26.10260337 -14.63694623 22.82882387 -18.375 19.375 C-20.36742489 18.3599911 -22.36574195 17.35626556 -24.375 16.375 C-25.04296875 14.29296875 -25.04296875 14.29296875 -25.375 12.375 C-18.48202382 17.24358269 -13.99199509 21.59846055 -10.375 29.375 C-8.38160712 27.58094641 -7.10376239 25.93298315 -5.6875 23.625 C-2.49890248 19.14372781 1.64495011 14.86502494 6.625 12.375 C6.625 13.695 6.625 15.015 6.625 16.375 C5.3565625 16.6225 5.3565625 16.6225 4.0625 16.875 C-0.64700631 18.9300573 -3.49011979 22.16291595 -6.375 26.375 C-7.09436775 28.52609295 -7.09436775 28.52609295 -7.375 30.375 C-6.61316406 29.77751953 -6.61316406 29.77751953 -5.8359375 29.16796875 C-1.83596502 26.08933825 1.99379143 23.45904386 6.625 21.375 C6.625 22.035 6.625 22.695 6.625 23.375 C5.779375 23.58125 4.93375 23.7875 4.0625 24 C-0.22153389 25.71361355 -3.04742567 28.24432356 -6.375 31.375 C-6.045 32.035 -5.715 32.695 -5.375 33.375 C-4.85550781 33.03726563 -4.33601563 32.69953125 -3.80078125 32.3515625 C-0.05615617 29.95666365 3.4812556 28.00738416 7.625 26.375 C9.75102115 22.1229577 9.21948485 16.98081464 8.625 12.375 C6.23441313 6.88811796 2.15442363 3.32479257 -3.3046875 1 C-13.07329982 -1.94901504 -20.71235464 2.48161556 -26.375 10.375 Z " fill="#D9D8D9" transform="translate(86.375,54.625)"/>
<path d="M0 0 C4.94734691 2.85891768 8.46981588 7.06703562 10.625 12.375 C11.51417972 19.45099865 11.54901921 25.85043138 7.19140625 31.72265625 C2.39491215 36.78229965 -2.54875107 39.49279623 -9.5625 39.75 C-16.22629512 39.6795768 -20.2049012 37.46422893 -24.90625 32.8828125 C-29.61787798 27.59592762 -30.91504908 22.87597069 -30.75 15.93359375 C-29.75964083 9.17645564 -25.07982788 4.70231184 -20.0234375 0.50390625 C-14.49706939 -3.28073921 -5.87956177 -2.69899883 0 0 Z M-26.375 10.375 C-28.58340635 14.79181271 -27.79661434 20.56742534 -27.375 25.375 C-24.87373604 30.65544615 -21.16848896 33.86500597 -16.0625 36.625 C-9.65129409 38.41417374 -4.85581727 37.75773782 0.8671875 34.58203125 C4.60649528 32.01437324 6.88734529 28.49280361 8.625 24.375 C9.50813534 18.43081983 9.63312378 12.94652677 6.125 7.875 C1.91321295 3.12932445 -2.98085539 0.27620123 -9.375 -0.125 C-17.03019382 0.32619021 -22.05761857 4.35683195 -26.375 10.375 Z " fill="#101010" transform="translate(86.375,54.625)"/>
<path d="M0 0 C3.0625 0.25 3.0625 0.25 6.0625 2.25 C6.7225 1.59 7.3825 0.93 8.0625 0.25 C10.6875 0.625 10.6875 0.625 13.0625 1.25 C12.7325 1.91 12.4025 2.57 12.0625 3.25 C11.0725 2.59 10.0825 1.93 9.0625 1.25 C9.81400023 4.52773504 9.81400023 4.52773504 13.0625 6.25 C12.7325 7.9 12.4025 9.55 12.0625 11.25 C11.299375 11.085 10.53625 10.92 9.75 10.75 C7.02653764 10.15854604 7.02653764 10.15854604 4.0625 10.25 C3.7325 10.58 3.4025 10.91 3.0625 11.25 C-0.375 11 -0.375 11 -3.9375 10.25 C-5.9375 7.25 -5.9375 7.25 -5.6875 4.6875 C-4.58551652 1.10605369 -3.76088973 0.32007572 0 0 Z " fill="#A7D8E5" transform="translate(240.9375,73.75)"/>
<path d="M0 0 C0.99 0.495 0.99 0.495 2 1 C2.33 1.99 2.66 2.98 3 4 C4.051875 4.556875 5.10375 5.11375 6.1875 5.6875 C10.58679449 8.0374337 13.73591211 11.55398871 16 16 C15.67 16.99 15.34 17.98 15 19 C14.525625 18.278125 14.05125 17.55625 13.5625 16.8125 C10.21056616 13.13354822 6.40826495 11.21355185 2 9 C1.67 9.66 1.34 10.32 1 11 C2.051875 11.2475 3.10375 11.495 4.1875 11.75 C7.8163345 12.78259518 10.26483288 14.34771673 13 17 C13 17.66 13 18.32 13 19 C9.9168649 17.80100302 6.93720508 16.52299523 4 15 C4 15.66 4 16.32 4 17 C4.99 17.33 5.98 17.66 7 18 C6.01 18.33 5.02 18.66 4 19 C-0.66928844 13.89296577 -0.35199549 9.38157043 -0.140625 2.6328125 C-0.09421875 1.76398438 -0.0478125 0.89515625 0 0 Z " fill="#F0F0F0" transform="translate(59,67)"/>
<path d="M0 0 C0.33 0 0.66 0 1 0 C1.05406122 1.93719378 1.09282025 3.87481921 1.125 5.8125 C1.14820312 6.89144531 1.17140625 7.97039062 1.1953125 9.08203125 C1 12 1 12 -1 15 C-2.76953125 15.84375 -2.76953125 15.84375 -4.8125 16.5 C-8.16133567 17.65287785 -11.02389609 19.04693181 -14 21 C-12.49687867 17.17387297 -10.37198449 15.29908033 -7 13 C-3.6875 11.75 -3.6875 11.75 -1 11 C-1 10.34 -1 9.68 -1 9 C-6.37722282 11.50318993 -10.59391956 14.03452761 -15 18 C-13.79209779 11.80950116 -10.03389889 8.44774584 -5 5 C-2.7421875 4.30078125 -2.7421875 4.30078125 -1 4 C-0.67 2.68 -0.34 1.36 0 0 Z " fill="#F1F1F1" transform="translate(94,67)"/>
<path d="M0 0 C6.60630284 1.80171896 11.13232162 7.17101857 14.4375 12.9375 C14.953125 13.948125 15.46875 14.95875 16 16 C16.38478516 15.27296875 16.38478516 15.27296875 16.77734375 14.53125 C20.17458672 8.58321517 24.48499155 4.07395516 30 0 C30.66 0 31.32 0 32 0 C32 1.32 32 2.64 32 4 C30.390625 5.30859375 30.390625 5.30859375 28.25 6.4375 C23.25607202 9.31386135 20.34750689 12.71810949 18 18 C17.34 18 16.68 18 16 18 C15.67 18.99 15.34 19.98 15 21 C14.70867187 20.33613281 14.41734375 19.67226562 14.1171875 18.98828125 C10.77889085 11.79729632 7.52973728 7.18565808 0 4 C0 2.68 0 1.36 0 0 Z " fill="#737273" transform="translate(61,67)"/>
<path d="M0 0 C0 3.63 0 7.26 0 11 C-7.38804781 11.36334661 -7.38804781 11.36334661 -10 9.8125 C-11.36703913 7.33474158 -11.41826612 5.78844081 -11 3 C-8.63169142 -1.2925593 -4.30785219 -0.21186158 0 0 Z " fill="#9E9E9E" transform="translate(186,74)"/>
<path d="M0 0 C1.875 1.6875 1.875 1.6875 3 4 C2.875 6.625 2.875 6.625 2 9 C-1 11 -1 11 -4.125 10.75 C-5.548125 10.37875 -5.548125 10.37875 -7 10 C-8.39431504 7.21136993 -8.25660094 5.07921132 -8 2 C-4.77856724 -0.14762184 -3.7404533 -0.561068 0 0 Z " fill="#A5A5A5" transform="translate(129,74)"/>
<path d="M0 0 C0 0.66 0 1.32 0 2 C-0.62648438 2.32613281 -1.25296875 2.65226562 -1.8984375 2.98828125 C-2.71570313 3.42527344 -3.53296875 3.86226563 -4.375 4.3125 C-5.18710938 4.74175781 -5.99921875 5.17101562 -6.8359375 5.61328125 C-9.26834043 6.96778724 -9.26834043 6.96778724 -11 10 C-9.9275 9.319375 -8.855 8.63875 -7.75 7.9375 C-4.33842267 5.96528998 -4.33842267 5.96528998 -1.5625 6.25 C-1.046875 6.4975 -0.53125 6.745 0 7 C-2.62372526 10.59547535 -4.88094768 13.19163556 -9 15 C-11.8125 14.6875 -11.8125 14.6875 -14 14 C-14 12.68 -14 11.36 -14 10 C-14.66 9.67 -15.32 9.34 -16 9 C-15.34 8.62875 -14.68 8.2575 -14 7.875 C-10.76674714 5.85421696 -7.84225426 3.58592704 -4.8671875 1.20703125 C-3 0 -3 0 0 0 Z " fill="#BBBBBB" transform="translate(93,76)"/>
<path d="M0 0 C6 0 6 0 9 2 C9.3125 4.5 9.3125 4.5 9 7 C7 9 7 9 3.875 9.125 C2.451875 9.063125 2.451875 9.063125 1 9 C1 10.98 1 12.96 1 15 C0.67 15 0.34 15 0 15 C0 10.05 0 5.1 0 0 Z " fill="#2B2A2A" transform="translate(110,70)"/>
<path d="M0 0 C0.94746094 -0.01417969 1.89492187 -0.02835938 2.87109375 -0.04296875 C5.60751644 0.19135482 7.22678123 0.79048617 9.5625 2.1875 C9.5625 2.8475 9.5625 3.5075 9.5625 4.1875 C8.9025 4.0225 8.2425 3.8575 7.5625 3.6875 C0.10993214 2.44540536 -5.16121138 2.85420496 -11.4375 7.1875 C-13.75357874 9.64383073 -13.75357874 9.64383073 -15.4375 12.1875 C-16.41980498 13.2048873 -17.41219597 14.21346117 -18.4375 15.1875 C-18.7675 14.5275 -19.0975 13.8675 -19.4375 13.1875 C-14.76877919 5.34404904 -9.48170642 0.06432637 0 0 Z " fill="#181717" transform="translate(76.4375,52.8125)"/>
<path d="M0 0 C0.33 1.65 0.66 3.3 1 5 C-1.97 5 -4.94 5 -8 5 C-7.01 6.485 -7.01 6.485 -6 8 C-2.39007621 7.34414811 -2.39007621 7.34414811 1 6 C0.67 6.99 0.34 7.98 0 9 C-6.42548263 10.33359073 -6.42548263 10.33359073 -8.9375 8.875 C-10.36066991 6.36352369 -10.42674516 4.84496772 -10 2 C-7.58628749 -2.25949266 -4.24852727 -0.88176981 0 0 Z " fill="#41ABC8" transform="translate(216,75)"/>
<path d="M0 0 C5.2424913 2.76687041 8.78097495 6.47645279 11 12 C11.265625 15.09375 11.265625 15.09375 11.25 18.5 C11.25515625 19.6240625 11.2603125 20.748125 11.265625 21.90625 C11.01284295 24.85041743 10.53364541 26.51695505 9 29 C8.01 28.67 7.02 28.34 6 28 C6.32097656 27.45988281 6.64195313 26.91976562 6.97265625 26.36328125 C8.95830631 21.79553111 8.63621479 16.86704311 8 12 C6.19314688 7.96237823 3.69090252 5.46060168 0 3 C0 2.01 0 1.02 0 0 Z " fill="#1B1B1B" transform="translate(86,55)"/>
<path d="M0 0 C1.8125 1.3125 1.8125 1.3125 3 3 C3 3.99 3 4.98 3 6 C-1.455 6.495 -1.455 6.495 -6 7 C-4.16116119 9.28728734 -4.16116119 9.28728734 -1.375 9.125 C-0.59125 9.08375 0.1925 9.0425 1 9 C0.67 9.66 0.34 10.32 0 11 C-4.44936709 11.36075949 -4.44936709 11.36075949 -6.8125 9.8125 C-8.42525784 7.35092224 -8.4334014 5.88934264 -8 3 C-5.85607122 -0.27231235 -3.76836426 -0.56525464 0 0 Z " fill="#2D2C2D" transform="translate(148,74)"/>
<path d="M0 0 C4.1327203 0.96109774 5.74371433 1.67800006 8.4375 5.0625 C10.79534003 8.34594962 10.79534003 8.34594962 14.8125 8.875 C15.864375 8.91625 16.91625 8.9575 18 9 C18 9.33 18 9.66 18 10 C11.85178487 10.43915822 6.97978805 9.93141162 2 6 C0.5 2.75 0.5 2.75 0 0 Z " fill="#BEBEBE" transform="translate(63,82)"/>
<path d="M0 0 C2.625 0.375 2.625 0.375 5 1 C5.625 3.375 5.625 3.375 6 6 C5.34 6.66 4.68 7.32 4 8 C1.375 7.625 1.375 7.625 -1 7 C-1.625 4.625 -1.625 4.625 -2 2 C-1.34 1.34 -0.68 0.68 0 0 Z " fill="#5ED4F5" transform="translate(75,66)"/>
<path d="M0 0 C0.33 0.99 0.66 1.98 1 3 C3.33163378 3.67258667 5.6652039 4.33847444 8 5 C10.9375 7 10.9375 7 13 9 C13 9.66 13 10.32 13 11 C9.9168649 9.80100302 6.93720508 8.52299523 4 7 C4 7.66 4 8.32 4 9 C4.99 9.33 5.98 9.66 7 10 C6.01 10.33 5.02 10.66 4 11 C1.17438373 7.20307814 -0.56638908 4.81430721 0 0 Z " fill="#E9E9E9" transform="translate(59,75)"/>
<path d="M0 0 C0.66 0 1.32 0 2 0 C2 4.95 2 9.9 2 15 C1.67 15 1.34 15 1 15 C0.67 11.37 0.34 7.74 0 4 C-1.32 7.3 -2.64 10.6 -4 14 C-4.99 14 -5.98 14 -7 14 C-9.125 9.375 -9.125 9.375 -8 6 C-7.01 7.32 -6.02 8.64 -5 10 C-3.35 6.7 -1.7 3.4 0 0 Z " fill="#35A3C3" transform="translate(202,70)"/>
<path d="M0 0 C0 1.32 0 2.64 0 4 C-1.57421875 5.30859375 -1.57421875 5.30859375 -3.6875 6.4375 C-7.43560954 8.58117899 -10.09432796 10.8219212 -13 14 C-13.33 13.34 -13.66 12.68 -14 12 C-3.89320388 0 -3.89320388 0 0 0 Z " fill="#807F80" transform="translate(93,67)"/>
<path d="M0 0 C1.98 0 3.96 0 6 0 C6.625 1.875 6.625 1.875 7 4 C5 6 5 6 2.375 6.125 C1.59125 6.08375 0.8075 6.0425 0 6 C0 4.02 0 2.04 0 0 Z " fill="#E8E8E8" transform="translate(111,72)"/>
<path d="M0 0 C0.99 0.33 1.98 0.66 3 1 C3.33 2.65 3.66 4.3 4 6 C3.67 6 3.34 6 3 6 C2.67 8.97 2.34 11.94 2 15 C1.34 15 0.68 15 0 15 C0 10.05 0 5.1 0 0 Z " fill="#5AB5CE" transform="translate(189,70)"/>
<path d="M0 0 C-1 3 -1 3 -3.9375 5.4375 C-6.73005586 7.77412837 -7.54806085 8.87274644 -9 12 C-9.99 12.33 -10.98 12.66 -12 13 C-10.97359462 7.73967244 -6.06649671 0 0 0 Z " fill="#0A0A0A" transform="translate(69,55)"/>
<path d="M0 0 C6.04730452 2.29797572 11.39442405 4.71586737 14.375 10.8125 C14.58125 11.534375 14.7875 12.25625 15 13 C14.38125 12.41992188 14.38125 12.41992188 13.75 11.828125 C9.4413236 7.94262217 5.2774632 5.40726392 0 3 C0 2.01 0 1.02 0 0 Z " fill="#848484" transform="translate(60,75)"/>
<path d="M0 0 C0.66 0 1.32 0 2 0 C2 1.32 2 2.64 2 4 C2.66 4.33 3.32 4.66 4 5 C3.34 5 2.68 5 2 5 C2 8.3 2 11.6 2 15 C1.34 15 0.68 15 0 15 C0 11.7 0 8.4 0 5 C-0.66 4.67 -1.32 4.34 -2 4 C-1.34 4 -0.68 4 0 4 C0 2.68 0 1.36 0 0 Z " fill="#515050" transform="translate(166,70)"/>
<path d="M0 0 C0 0.66 0 1.32 0 2 C-0.60328125 2.32613281 -1.2065625 2.65226562 -1.828125 2.98828125 C-3.02695313 3.64376953 -3.02695313 3.64376953 -4.25 4.3125 C-5.03890625 4.74175781 -5.8278125 5.17101562 -6.640625 5.61328125 C-8.89727134 6.9396214 -10.93998597 8.38884224 -13 10 C-11.58956521 6.63834194 -9.98473966 4.90494768 -7.0625 2.75 C-6.37285156 2.22921875 -5.68320313 1.7084375 -4.97265625 1.171875 C-3 0 -3 0 0 0 Z " fill="#747474" transform="translate(93,76)"/>
<path d="M0 0 C6.0546875 -0.1953125 6.0546875 -0.1953125 8 0 C8.66 0.66 9.32 1.32 10 2 C7.78023089 3.34771696 6.49852224 4.04398726 3.875 3.8125 C2 3 2 3 0 0 Z " fill="#DADADA" transform="translate(141,80)"/>
<path d="M0 0 C-0.33 0.99 -0.66 1.98 -1 3 C-1.94875 2.79375 -2.8975 2.5875 -3.875 2.375 C-4.90625 2.25125 -5.9375 2.1275 -7 2 C-7.66 2.66 -8.32 3.32 -9 4 C-11.625 4.125 -11.625 4.125 -14 4 C-13.38125 3.71125 -12.7625 3.4225 -12.125 3.125 C-9.86674235 2.06279958 -9.86674235 2.06279958 -8 0 C-4.69164744 -0.93312508 -3.32320026 -1.10773342 0 0 Z " fill="#A5D7E4" transform="translate(253,81)"/>
<path d="M0 0 C2.97 0 5.94 0 9 0 C7.25 2.0625 7.25 2.0625 5 4 C2.8125 3.9375 2.8125 3.9375 1 3 C0.67 2.01 0.34 1.02 0 0 Z " fill="#ECF8F9" transform="translate(208,80)"/>
<path d="M0 0 C1.65 0.33 3.3 0.66 5 1 C5.33 1.99 5.66 2.98 6 4 C3.36 4 0.72 4 -2 4 C-1.34 2.68 -0.68 1.36 0 0 Z " fill="#DEF4F8" transform="translate(210,75)"/>
<path d="M0 0 C1.65 0 3.3 0 5 0 C4.34 0.66 3.68 1.32 3 2 C2.53993654 4.20250992 2.53993654 4.20250992 2.375 6.625 C2.30023438 7.44226563 2.22546875 8.25953125 2.1484375 9.1015625 C2.09945312 9.72804688 2.05046875 10.35453125 2 11 C1.34 11 0.68 11 0 11 C0 7.37 0 3.74 0 0 Z " fill="#5DB4CF" transform="translate(226,74)"/>
<path d="M0 0 C0 3.3 0 6.6 0 10 C-0.66 10 -1.32 10 -2 10 C-3.4783226 7.04335481 -3.06032783 4.25770263 -3 1 C-1 0 -1 0 0 0 Z " fill="#313131" transform="translate(59,67)"/>
<path d="M0 0 C0.639375 0.2475 1.27875 0.495 1.9375 0.75 C2.2675 1.74 2.5975 2.73 2.9375 3.75 C0.2975 3.75 -2.3425 3.75 -5.0625 3.75 C-4.7325 2.76 -4.4025 1.77 -4.0625 0.75 C-2.0625 -0.25 -2.0625 -0.25 0 0 Z " fill="#E3E2E2" transform="translate(146.0625,75.25)"/>
<path d="M0 0 C0.33 0 0.66 0 1 0 C1.22331199 1.58129029 1.42804644 3.16521089 1.625 4.75 C1.74101563 5.63171875 1.85703125 6.5134375 1.9765625 7.421875 C2.00207817 10.22859878 1.44843844 11.63384866 0 14 C-0.99 13.67 -1.98 13.34 -3 13 C-2.68289062 12.43796875 -2.36578125 11.8759375 -2.0390625 11.296875 C-0.93125475 8.84803683 -0.61024601 6.91612145 -0.375 4.25 C-0.30023438 3.45078125 -0.22546875 2.6515625 -0.1484375 1.828125 C-0.09945312 1.22484375 -0.05046875 0.6215625 0 0 Z " fill="#313131" transform="translate(95,70)"/>
<path d="M0 0 C1.67542976 0.28604898 3.34385343 0.61781233 5 1 C4.67 2.32 4.34 3.64 4 5 C2.68 5 1.36 5 0 5 C-0.5625 3.0625 -0.5625 3.0625 -1 1 C-0.67 0.67 -0.34 0.34 0 0 Z " fill="#9CE0F8" transform="translate(75,66)"/>
<path d="M0 0 C0.103125 0.639375 0.20625 1.27875 0.3125 1.9375 C0.539375 2.618125 0.76625 3.29875 1 4 C1.99 4.33 2.98 4.66 4 5 C3.01 5 2.02 5 1 5 C1 8.3 1 11.6 1 15 C0.67 15 0.34 15 0 15 C0 11.7 0 8.4 0 5 C-0.66 4.67 -1.32 4.34 -2 4 C-1.34 4 -0.68 4 0 4 C0 2.68 0 1.36 0 0 Z " fill="#131313" transform="translate(135,70)"/>
<path d="M0 0 C0.103125 0.639375 0.20625 1.27875 0.3125 1.9375 C0.539375 2.618125 0.76625 3.29875 1 4 C1.99 4.33 2.98 4.66 4 5 C3.01 5 2.02 5 1 5 C1 8.3 1 11.6 1 15 C0.67 15 0.34 15 0 15 C0 11.7 0 8.4 0 5 C-0.66 4.67 -1.32 4.34 -2 4 C-1.34 4 -0.68 4 0 4 C0 2.68 0 1.36 0 0 Z " fill="#1D9BBC" transform="translate(221,70)"/>
<path d="M0 0 C2 2 4 4 6 6 C5.01 6.99 4.02 7.98 3 9 C0 3.375 0 3.375 0 0 Z " fill="#42A9C7" transform="translate(193,76)"/>
<path d="M0 0 C0.66 0.33 1.32 0.66 2 1 C2 1.66 2 2.32 2 3 C-0.31 4.32 -2.62 5.64 -5 7 C-3.70700306 4.11562221 -2.34058637 2.12780579 0 0 Z " fill="#E7E7E7" transform="translate(85,81)"/>
<path d="M0 0 C0.33 0.66 0.66 1.32 1 2 C1.66 2 2.32 2 3 2 C3.66 3.98 4.32 5.96 5 8 C4.01 8 3.02 8 2 8 C0.74335022 5.09399739 0 3.20395416 0 0 Z " fill="#181818" transform="translate(56,75)"/>
</svg>
