<?xml version="1.0" encoding="UTF-8"?>
<svg version="1.1" xmlns="http://www.w3.org/2000/svg" >
<path d="M0 0 C74.25 0 148.5 0 225 0 C225 74.25 225 148.5 225 225 C150.75 225 76.5 225 0 225 C0 150.75 0 76.5 0 0 Z " fill="#26626C" transform="translate(0,0)"/>
<path d="M0 0 C74.25 0 148.5 0 225 0 C225 16.17 225 32.34 225 49 C150.75 49 76.5 49 0 49 C0 32.83 0 16.66 0 0 Z " fill="#496D73" transform="translate(0,176)"/>
<path d="M0 0 C74.25 0 148.5 0 225 0 C225 2.97 225 5.94 225 9 C150.75 9 76.5 9 0 9 C0 6.03 0 3.06 0 0 Z " fill="#728487" transform="translate(0,216)"/>
</svg>
