<?xml version="1.0" encoding="UTF-8"?>
<svg version="1.1" xmlns="http://www.w3.org/2000/svg" >
<path d="M0 0 C102.3 0 204.6 0 310 0 C310 53.46 310 106.92 310 162 C207.7 162 105.4 162 0 162 C0 108.54 0 55.08 0 0 Z " fill="#7F7F7F" transform="translate(0,0)"/>
<path d="M0 0 C102.3 0 204.6 0 310 0 C310 16.17 310 32.34 310 49 C207.7 49 105.4 49 0 49 C0 32.83 0 16.66 0 0 Z " fill="#848384" transform="translate(0,0)"/>
<path d="M0 0 C102.3 0 204.6 0 310 0 C310 8.91 310 17.82 310 27 C224.86 27 139.72 27 52 27 C52 26.34 52 25.68 52 25 C45.4 25 38.8 25 32 25 C32 25.66 32 26.32 32 27 C21.44 27 10.88 27 0 27 C0 18.09 0 9.18 0 0 Z " fill="#757575" transform="translate(0,49)"/>
<path d="M0 0 C36.3 0 72.6 0 110 0 C109.67 2.31 109.34 4.62 109 7 C108.9221232 9.56022062 108.89205707 12.12220963 108.90234375 14.68359375 C108.9037587 15.38396255 108.90517365 16.08433136 108.90663147 16.80592346 C108.91217523 19.01649466 108.92471674 21.22696004 108.9375 23.4375 C108.94252229 24.94726415 108.94708391 26.45702991 108.95117188 27.96679688 C108.96212613 31.64456493 108.9793511 35.32227212 109 39 C109.33 38.67 109.66 38.34 110 38 C112.28988781 37.84111908 114.58443441 37.74861927 116.87890625 37.68359375 C117.5655687 37.66281265 118.25223114 37.64203156 118.95970154 37.62062073 C121.16052935 37.55505857 123.36147975 37.49620985 125.5625 37.4375 C127.05144514 37.39432108 128.54037773 37.350707 130.02929688 37.30664062 C133.68606553 37.1993707 137.34297318 37.09812228 141 37 C141 36.67 141 36.34 141 36 C131.43 35.67 121.86 35.34 112 35 C112 34.67 112 34.34 112 34 C127.84 34 143.68 34 160 34 C159.67 35.32 159.34 36.64 159 38 C166.59 38 174.18 38 182 38 C182 38.66 182 39.32 182 40 C179.28598706 41.35700647 177.15153684 41.1123861 174.1171875 41.09765625 C172.95058594 41.09443359 171.78398437 41.09121094 170.58203125 41.08789062 C169.35871094 41.07951172 168.13539063 41.07113281 166.875 41.0625 C165.64394531 41.05798828 164.41289062 41.05347656 163.14453125 41.04882812 C160.09630608 41.0370133 157.04817686 41.02054028 154 41 C154.66 40.01 155.32 39.02 156 38 C153.69 38 151.38 38 149 38 C148.67 38.99 148.34 39.98 148 41 C137.5835037 41.17797173 127.16683961 41.34349565 116.75 41.5 C115.95989532 41.51187725 115.16979065 41.5237545 114.35574341 41.53599167 C87.40314964 41.93746048 60.45546621 42.08993559 33.5 42.0625 C32.2292588 42.06121597 32.2292588 42.06121597 30.93284607 42.05990601 C20.62186331 42.04869674 10.31096769 42.02572026 0 42 C0 28.14 0 14.28 0 0 Z M182 32 C190.91 32 199.82 32 209 32 C209 32.99 209 33.98 209 35 C218.57 35.33 228.14 35.66 238 36 C236 38 236 38 233.70944214 38.24050903 C232.75457916 38.23606781 231.79971619 38.23162659 230.81591797 38.22705078 C229.73494843 38.22689972 228.65397888 38.22674866 227.54025269 38.22659302 C226.36939117 38.21627045 225.19852966 38.20594788 223.9921875 38.1953125 C222.79643097 38.1924826 221.60067444 38.18965271 220.36868286 38.18673706 C216.53735481 38.17551305 212.70625778 38.15040431 208.875 38.125 C206.28255545 38.11497308 203.69010725 38.10584673 201.09765625 38.09765625 C194.73169158 38.07556646 188.36586229 38.04206706 182 38 C182 37.34 182 36.68 182 36 C189.26 35.67 196.52 35.34 204 35 C204 34.67 204 34.34 204 34 C196.74 34 189.48 34 182 34 C182 33.34 182 32.68 182 32 Z M180 34 C182 35 182 35 182 35 Z " fill="#090909" transform="translate(0,0)"/>
<path d="M0 0 C102.3 0 204.6 0 310 0 C310 2.31 310 4.62 310 7 C207.7 7 105.4 7 0 7 C0 4.69 0 2.38 0 0 Z " fill="#595959" transform="translate(0,42)"/>
<path d="M0 0 C36.3 0 72.6 0 110 0 C109.67 2.31 109.34 4.62 109 7 C109 10.3 109 13.6 109 17 C82.765 17.99 82.765 17.99 56 19 C56 19.33 56 19.66 56 20 C48.33333333 20 40.66666667 20 33 20 C32.67 21.32 32.34 22.64 32 24 C21.44 24 10.88 24 0 24 C0 16.08 0 8.16 0 0 Z " fill="#302F30" transform="translate(0,0)"/>
<path d="M0 0 C42.52656225 -0.08229232 85.05192542 0.04232444 127.578125 0.21875 C128.23848275 0.22148658 128.8988405 0.22422317 129.57920909 0.22704268 C146.61290933 0.29769417 163.64659752 0.37106496 180.68028212 0.44538212 C190.56745096 0.48849383 200.45462278 0.53086543 210.34179688 0.57275391 C211.04678461 0.5757409 211.75177234 0.5787279 212.47812334 0.58180541 C216.0178654 0.59679937 219.55760751 0.61178144 223.09734964 0.62675762 C252.06490774 0.74933065 281.03245676 0.87396515 310 1 C310 2.98 310 4.96 310 7 C279.46161733 7.02305541 248.92323675 7.04063237 218.3848474 7.05106533 C214.73947507 7.05231531 211.09410277 7.0536097 207.44873047 7.05493164 C206.36061664 7.05532511 206.36061664 7.05532511 205.25052072 7.05572652 C193.66558845 7.06002037 182.0806614 7.06787127 170.49573217 7.0771528 C158.51504163 7.08666781 146.53435372 7.09209225 134.55365956 7.09408849 C127.86371846 7.09531078 121.17379033 7.09825557 114.48385239 7.10573006 C76.31139673 7.14674095 38.16426859 6.73090952 0 6 C0 4.02 0 2.04 0 0 Z " fill="#6E6E6E" transform="translate(0,59)"/>
<path d="M0 0 C0 3.63 0 7.26 0 11 C2.81824192 12.40912096 5.17251282 12.11183553 8.3203125 12.09765625 C10.20556641 12.09282227 10.20556641 12.09282227 12.12890625 12.08789062 C13.44761719 12.07951172 14.76632813 12.07113281 16.125 12.0625 C17.46484211 12.05748489 18.804686 12.05292201 20.14453125 12.04882812 C23.42973206 12.03701086 26.71484397 12.02053617 30 12 C30 12.99 30 13.98 30 15 C36.93 15.495 36.93 15.495 44 16 C44 16.33 44 16.66 44 17 C40.37 17 36.74 17 33 17 C33 17.66 33 18.32 33 19 C36.63 19.33 40.26 19.66 44 20 C44 20.33 44 20.66 44 21 C32.12 21 20.24 21 8 21 C7.505 19.515 7.505 19.515 7 18 C5.35 18 3.7 18 2 18 C2.45386959 24.9593337 4.99720822 31.99720822 10 37 C-1.22 37 -12.44 37 -24 37 C-24 37.66 -24 38.32 -24 39 C-35.22 39 -46.44 39 -58 39 C-57.34 36.03 -56.68 33.06 -56 30 C-55.39238282 27.16445318 -54.91045738 24.37320165 -54.5 21.5 C-54 18 -54 18 -53.46875 15.63671875 C-52.96356354 12.79504492 -52.93707487 10.19525736 -53 7.3125 C-53.11024643 2.22049287 -53.11024643 2.22049287 -52 0 C-34.58540622 -0.85635993 -17.40772033 -1.03617383 0 0 Z " fill="#DCDBDB" transform="translate(134,1)"/>
<path d="M0 0 C9.24 0 18.48 0 28 0 C28 0.66 28 1.32 28 2 C36.58 2 45.16 2 54 2 C54 4.97 54 7.94 54 11 C54.99 11.66 55.98 12.32 57 13 C57 13.33 57 13.66 57 14 C60.96 14 64.92 14 69 14 C69.99 15.98 69.99 15.98 71 18 C70.34 18.33 69.68 18.66 69 19 C69.66 19.33 70.32 19.66 71 20 C71 20.66 71 21.32 71 22 C70.34 22.66 69.68 23.32 69 24 C69 24.99 69 25.98 69 27 C69.66 27.33 70.32 27.66 71 28 C71 28.66 71 29.32 71 30 C70.34 30.66 69.68 31.32 69 32 C69 32.33 69 32.66 69 33 C60.75 33 52.5 33 44 33 C44 32.67 44 32.34 44 32 C46.31 31.67 48.62 31.34 51 31 C51 30.67 51 30.34 51 30 C48.69 30 46.38 30 44 30 C43.505 31.485 43.505 31.485 43 33 C29.14 33 15.28 33 1 33 C1 28.05 1 23.1 1 18 C17.83 18 34.66 18 52 18 C51.34 18.99 50.68 19.98 50 21 C51.98 20.67 53.96 20.34 56 20 C56 19.34 56 18.68 56 18 C42.14 17.505 42.14 17.505 28 17 C28.33 16.01 28.66 15.02 29 14 C15.14 13.505 15.14 13.505 1 13 C1 9.37 1 5.74 1 2 C0.67 1.34 0.34 0.68 0 0 Z M71 14 C88.49 14 105.98 14 124 14 C124 14.99 124 15.98 124 17 C121.5 18.625 121.5 18.625 119 20 C119 20.33 119 20.66 119 21 C108.77 21 98.54 21 88 21 C88.66 20.67 89.32 20.34 90 20 C90 19.01 90 18.02 90 17 C90.99 17 91.98 17 93 17 C93 16.34 93 15.68 93 15 C82.11 15.495 82.11 15.495 71 16 C71 15.34 71 14.68 71 14 Z M71 18 C76.94 18 82.88 18 89 18 C89 18.33 89 18.66 89 19 C83.06 19.33 77.12 19.66 71 20 C71 19.34 71 18.68 71 18 Z M71 26 C77.93 26 84.86 26 92 26 C92 26.33 92 26.66 92 27 C81.605 27.495 81.605 27.495 71 28 C71 27.34 71 26.68 71 26 Z " fill="#121212" transform="translate(111,0)"/>
<path d="M0 0 C2.01253862 -0.00975422 4.02407531 -0.04084259 6.03637695 -0.07226562 C7.30932617 -0.07742188 8.58227539 -0.08257812 9.89379883 -0.08789062 C11.63705444 -0.10190918 11.63705444 -0.10190918 13.41552734 -0.11621094 C16.75517237 0.27577248 17.96482683 1.0763283 20.45239258 3.24023438 C22.80091484 3.8071272 22.80091484 3.8071272 25.20239258 3.92773438 C27.30614258 4.08242188 27.30614258 4.08242188 29.45239258 4.24023438 C29.45239258 9.85023437 29.45239258 15.46023437 29.45239258 21.24023438 C17.06208328 21.33269937 4.8133466 21.06725161 -7.54760742 20.24023438 C-8.04260742 18.75523438 -8.04260742 18.75523438 -8.54760742 17.24023438 C-6.56760742 16.91023438 -4.58760742 16.58023438 -2.54760742 16.24023438 C-6.53160701 15.54926966 -6.53160701 15.54926966 -10.54760742 15.24023438 C-10.87760742 15.90023438 -11.20760742 16.56023438 -11.54760742 17.24023438 C-21.44760742 17.57023437 -31.34760742 17.90023437 -41.54760742 18.24023438 C-41.54760742 18.57023437 -41.54760742 18.90023437 -41.54760742 19.24023438 C-50.78760742 19.24023438 -60.02760742 19.24023438 -69.54760742 19.24023438 C-69.54760742 18.91023438 -69.54760742 18.58023438 -69.54760742 18.24023438 C-61.62760742 18.24023438 -53.70760742 18.24023438 -45.54760742 18.24023438 C-45.54760742 17.58023438 -45.54760742 16.92023437 -45.54760742 16.24023438 C-53.46760742 15.91023438 -61.38760742 15.58023437 -69.54760742 15.24023438 C-69.54760742 14.91023438 -69.54760742 14.58023437 -69.54760742 14.24023438 C-72.51760742 13.91023438 -75.48760742 13.58023437 -78.54760742 13.24023438 C-77.88760742 12.91023438 -77.22760742 12.58023437 -76.54760742 12.24023438 C-76.54760742 11.58023437 -76.54760742 10.92023437 -76.54760742 10.24023438 C-75.55760742 9.58023437 -74.56760742 8.92023437 -73.54760742 8.24023438 C-73.21760742 7.58023437 -72.88760742 6.92023437 -72.54760742 6.24023438 C-63.30760742 5.91023438 -54.06760742 5.58023437 -44.54760742 5.24023438 C-44.54760742 4.91023438 -44.54760742 4.58023437 -44.54760742 4.24023438 C-35.30760742 4.24023438 -26.06760742 4.24023438 -16.54760742 4.24023438 C-17.04260742 2.75523438 -17.04260742 2.75523438 -17.54760742 1.24023438 C-11.73105863 -0.12130326 -5.94653319 0.01746626 0 0 Z M-3.54760742 13.24023438 C-2.55760742 13.73523437 -2.55760742 13.73523437 -1.54760742 14.24023438 C-1.54760742 14.90023438 -1.54760742 15.56023438 -1.54760742 16.24023438 C1.42239258 16.24023438 4.39239258 16.24023438 7.45239258 16.24023438 C7.78239258 15.25023437 8.11239258 14.26023437 8.45239258 13.24023438 C4.49239258 13.24023438 0.53239258 13.24023438 -3.54760742 13.24023438 Z M-41.54760742 20.24023438 C-30.32760742 20.24023438 -19.10760742 20.24023438 -7.54760742 20.24023438 C-7.54760742 20.57023437 -7.54760742 20.90023437 -7.54760742 21.24023438 C-18.76760742 21.24023438 -29.98760742 21.24023438 -41.54760742 21.24023438 C-41.54760742 20.91023438 -41.54760742 20.58023438 -41.54760742 20.24023438 Z " fill="#010101" transform="translate(280.547607421875,15.759765625)"/>
<path d="M0 0 C4.76881876 -0.09900135 9.5370373 -0.17152928 14.30664062 -0.21972656 C15.92849143 -0.23982144 17.55026997 -0.26710254 19.171875 -0.30175781 C21.5053898 -0.3503727 23.83794557 -0.37298889 26.171875 -0.390625 C26.89493835 -0.41127014 27.61800171 -0.43191528 28.36297607 -0.45318604 C31.94689971 -0.45477743 33.66477962 -0.27262136 36.48925781 2.02441406 C36.98780273 2.67635742 37.48634766 3.32830078 38 4 C36.02 4.33 34.04 4.66 32 5 C32 5.66 32 6.32 32 7 C33.07894531 6.98839844 34.15789062 6.97679687 35.26953125 6.96484375 C46.54821776 6.88357422 57.7440396 7.30118206 69 8 C69 9.65 69 11.3 69 13 C-8.22 13 -85.44 13 -165 13 C-165 12.67 -165 12.34 -165 12 C-147.675 11.505 -147.675 11.505 -130 11 C-130 10.67 -130 10.34 -130 10 C-118.45 9.67 -106.9 9.34 -95 9 C-95 8.67 -95 8.34 -95 8 C-91.04 8 -87.08 8 -83 8 C-83 8.33 -83 8.66 -83 9 C-82.41508789 9.02505615 -81.83017578 9.0501123 -81.22753906 9.07592773 C-78.56815529 9.19222962 -75.90909597 9.31480067 -73.25 9.4375 C-72.32960938 9.47681641 -71.40921875 9.51613281 -70.4609375 9.55664062 C-69.57148438 9.59853516 -68.68203125 9.64042969 -67.765625 9.68359375 C-66.94868164 9.72025146 -66.13173828 9.75690918 -65.29003906 9.79467773 C-63.0965577 9.99134275 -61.11603587 10.40300594 -59 11 C-58.67 10.01 -58.34 9.02 -58 8 C-40.18 8 -22.36 8 -4 8 C-11.92 7.67 -19.84 7.34 -28 7 C-28 6.67 -28 6.34 -28 6 C-16.615 5.505 -16.615 5.505 -5 5 C-5 4.67 -5 4.34 -5 4 C-3.35 3.67 -1.7 3.34 0 3 C0 2.01 0 1.02 0 0 Z M-2 7 C-2 7.33 -2 7.66 -2 8 C9.22 8 20.44 8 32 8 C32 7.67 32 7.34 32 7 C20.78 7 9.56 7 -2 7 Z M36 0 C39.96 0 43.92 0 48 0 C47.67 0.99 47.34 1.98 47 3 C44.03 3 41.06 3 38 3 C38 2.34 38 1.68 38 1 C37.34 0.67 36.68 0.34 36 0 Z " fill="#B7B7B7" transform="translate(241,29)"/>
<path d="M0 0 C102.3 0 204.6 0 310 0 C310 0.99 310 1.98 310 3 C280.68449363 3.02305304 251.36898771 3.0406312 222.05347411 3.05106533 C218.55444822 3.05231532 215.05542235 3.05360971 211.55639648 3.05493164 C210.51196148 3.05532511 210.51196148 3.05532511 209.44642679 3.05572652 C198.32505761 3.06002092 187.20369387 3.06787217 176.08232787 3.0771528 C164.58190698 3.08666621 153.08148916 3.09201761 141.58106452 3.09408849 C135.15893866 3.09536636 128.73682488 3.09825767 122.31470299 3.10573006 C85.86417096 3.14651357 49.44213035 2.73458218 13 2 C13 2.99 13 3.98 13 5 C8.71 5 4.42 5 0 5 C0 3.35 0 1.7 0 0 Z " fill="#939393" transform="translate(0,49)"/>
<path d="M0 0 C36.3 0 72.6 0 110 0 C109.67 2.31 109.34 4.62 109 7 C109 9.64 109 12.28 109 15 C90.85 15 72.7 15 54 15 C54 14.34 54 13.68 54 13 C51.69 13.33 49.38 13.66 47 14 C47 13.34 47 12.68 47 12 C41.555 11.505 41.555 11.505 36 11 C36.33 10.01 36.66 9.02 37 8 C37.94875 7.855625 38.8975 7.71125 39.875 7.5625 C42.8934494 7.17064601 42.8934494 7.17064601 45 6 C45 5.34 45 4.68 45 4 C42.36 3.67 39.72 3.34 37 3 C37 2.67 37 2.34 37 2 C18.685 1.505 18.685 1.505 0 1 C0 0.67 0 0.34 0 0 Z " fill="#1B1A1A" transform="translate(0,0)"/>
<path d="M0 0 C20 0 40 0 60 0 C60 3.63 60 7.26 60 11 C49.44 11 38.88 11 28 11 C28 10.67 28 10.34 28 10 C12.82 9.67 -2.36 9.34 -18 9 C-18 8.34 -18 7.68 -18 7 C-28.23 7 -38.46 7 -49 7 C-49 6.67 -49 6.34 -49 6 C-38.44 6 -27.88 6 -17 6 C-16.67 4.68 -16.34 3.36 -16 2 C-10.72 2 -5.44 2 0 2 C0 1.34 0 0.68 0 0 Z " fill="#151414" transform="translate(49,18)"/>
<path d="M0 0 C22.44 0 44.88 0 68 0 C68 3.3 68 6.6 68 10 C35.33 9.505 35.33 9.505 2 9 C2.33 8.01 2.66 7.02 3 6 C8.28 6 13.56 6 19 6 C19 5.01 19 4.02 19 3 C12.4 3 5.8 3 -1 3 C-0.67 2.01 -0.34 1.02 0 0 Z " fill="#8F8F8F" transform="translate(242,0)"/>
<path d="M0 0 C7.92 0 15.84 0 24 0 C23.34 0.33 22.68 0.66 22 1 C22 1.99 22 2.98 22 4 C36.85 4.495 36.85 4.495 52 5 C52 5.33 52 5.66 52 6 C54.97 6.495 54.97 6.495 58 7 C58 7.33 58 7.66 58 8 C56.35 8 54.7 8 53 8 C53 8.66 53 9.32 53 10 C45.74 10.33 38.48 10.66 31 11 C31 11.33 31 11.66 31 12 C29.35 12 27.7 12 26 12 C25.505 10.515 25.505 10.515 25 9 C16.75 8.67 8.5 8.34 0 8 C1.02714661 9.2505313 1.02714661 9.2505313 3.22485352 9.11352539 C4.66235962 9.10567017 4.66235962 9.10567017 6.12890625 9.09765625 C7.16337891 9.09443359 8.19785156 9.09121094 9.26367188 9.08789062 C10.35228516 9.07951172 11.44089844 9.07113281 12.5625 9.0625 C13.65498047 9.05798828 14.74746094 9.05347656 15.87304688 9.04882812 C18.58208495 9.03699826 21.29101599 9.02051543 24 9 C24.495 10.485 24.495 10.485 25 12 C16.75 12 8.5 12 0 12 C0 12.66 0 13.32 0 14 C-7.59 14 -15.18 14 -23 14 C-22.67 12.68 -22.34 11.36 -22 10 C-28.27 10 -34.54 10 -41 10 C-41 9.67 -41 9.34 -41 9 C-38.36 8.67 -35.72 8.34 -33 8 C-33.66 7.01 -34.32 6.02 -35 5 C-29.39 5 -23.78 5 -18 5 C-18 5.66 -18 6.32 -18 7 C-12.06 6.67 -6.12 6.34 0 6 C0 4.68 0 3.36 0 2 C0 1.34 0 0.68 0 0 Z M0 2 C0 2.66 0 3.32 0 4 C-1.32 3.67 -2.64 3.34 -4 3 C-2 2 -2 2 0 2 Z " fill="#868585" transform="translate(182,24)"/>
<path d="M0 0 C1.78204079 0.00333092 1.78204079 0.00333092 3.6000824 0.00672913 C4.58053528 0.00651009 4.58053528 0.00651009 5.58079529 0.00628662 C7.75058766 0.00698569 9.92029517 0.01477774 12.09007263 0.02259827 C13.59079949 0.02446247 15.09152696 0.02588636 16.59225464 0.02688599 C20.54934865 0.03071099 24.50640616 0.04054112 28.46348572 0.05158997 C32.49851488 0.06180446 36.53354991 0.06638369 40.56858826 0.07142639 C48.49113294 0.08216341 56.41364092 0.09976006 64.33616638 0.12025452 C64.33616638 5.07025452 64.33616638 10.02025452 64.33616638 15.12025452 C59.05616638 15.12025452 53.77616638 15.12025452 48.33616638 15.12025452 C48.66616638 13.80025452 48.99616638 12.48025452 49.33616638 11.12025452 C47.35616638 11.12025452 45.37616638 11.12025452 43.33616638 11.12025452 C44.32616638 10.13025452 45.31616638 9.14025452 46.33616638 8.12025452 C21.58616638 7.62525452 21.58616638 7.62525452 -3.66383362 7.12025452 C-3.66383362 6.13025452 -3.66383362 5.14025452 -3.66383362 4.12025452 C-6.30383362 3.79025452 -8.94383362 3.46025452 -11.66383362 3.12025452 C-11.66383362 2.79025452 -11.66383362 2.46025452 -11.66383362 2.12025452 C-9.61305237 1.89238993 -7.56227112 1.66452535 -5.51148987 1.43666077 C-2.89147216 0.98798966 -2.93166889 0.13234551 0 0 Z " fill="#868686" transform="translate(245.66383361816406,20.879745483398438)"/>
<path d="M0 0 C10.23 0 20.46 0 31 0 C31 0.66 31 1.32 31 2 C46.51 2 62.02 2 78 2 C78.495 3.485 78.495 3.485 79 5 C73.39 5 67.78 5 62 5 C62 5.66 62 6.32 62 7 C54.46404134 8.28453841 47.11408896 7.89909844 39.5 7.5625 C38.200625 7.51029297 36.90125 7.45808594 35.5625 7.40429688 C32.37471154 7.27537896 29.18729782 7.14044748 26 7 C26 7.66 26 8.32 26 9 C25.34 9 24.68 9 24 9 C24 9.66 24 10.32 24 11 C16.08 11 8.16 11 0 11 C0 7.37 0 3.74 0 0 Z " fill="#272627" transform="translate(0,25)"/>
<path d="M0 0 C14.52 0 29.04 0 44 0 C44 3.3 44 6.6 44 10 C38.34003584 10.07402368 32.68035189 10.12854173 27.02001953 10.16479492 C25.09353733 10.17990395 23.16708965 10.20039214 21.24072266 10.22631836 C18.47549943 10.26260925 15.71072996 10.27970479 12.9453125 10.29296875 C11.6483696 10.31619453 11.6483696 10.31619453 10.32522583 10.33988953 C7.89892578 10.34057617 7.89892578 10.34057617 4 10 C3.34 9.01 2.68 8.02 2 7 C0.68 7.33 -0.64 7.66 -2 8 C-2 8.66 -2 9.32 -2 10 C-5.18748029 10.02932572 -8.37492528 10.04690739 -11.5625 10.0625 C-12.90538086 10.07506836 -12.90538086 10.07506836 -14.27539062 10.08789062 C-19.29997943 10.10629571 -24.04817291 9.86266398 -29 9 C-29 8.67 -29 8.34 -29 8 C-27.02 8 -25.04 8 -23 8 C-23 7.01 -23 6.02 -23 5 C-24.32 5.33 -25.64 5.66 -27 6 C-27 5.34 -27 4.68 -27 4 C-25.87972412 3.96241577 -25.87972412 3.96241577 -24.73681641 3.92407227 C-21.36602733 3.80831787 -17.99553217 3.68549872 -14.625 3.5625 C-13.449375 3.52318359 -12.27375 3.48386719 -11.0625 3.44335938 C-9.94101562 3.40146484 -8.81953125 3.35957031 -7.6640625 3.31640625 C-6.62717285 3.27974854 -5.5902832 3.24309082 -4.52197266 3.20532227 C-2.00574834 3.15835777 -2.00574834 3.15835777 0 2 C0 1.34 0 0.68 0 0 Z " fill="#494949" transform="translate(266,10)"/>
<path d="M0 0 C11.22 0 22.44 0 34 0 C33.34 0.99 32.68 1.98 32 3 C34.31 3.33 36.62 3.66 39 4 C39 4.66 39 5.32 39 6 C38.34 6.33 37.68 6.66 37 7 C40.3 7.33 43.6 7.66 47 8 C47 8.33 47 8.66 47 9 C53.93 9.33 60.86 9.66 68 10 C67.34 10.99 66.68 11.98 66 13 C63.75341797 13.34057617 63.75341797 13.34057617 60.9921875 13.29296875 C60.00605469 13.28330078 59.01992187 13.27363281 58.00390625 13.26367188 C56.97136719 13.23853516 55.93882812 13.21339844 54.875 13.1875 C53.31458984 13.16719727 53.31458984 13.16719727 51.72265625 13.14648438 C49.14792373 13.11105228 46.5742167 13.06165221 44 13 C44 12.67 44 12.34 44 12 C30.8 12 17.6 12 4 12 C3.67 11.01 3.34 10.02 3 9 C-1.95 9.33 -6.9 9.66 -12 10 C-13 5 -13 5 -12 2 C-8.04 2 -4.08 2 0 2 C0 1.34 0 0.68 0 0 Z M2 12 C4 13 4 13 4 13 Z " fill="#212121" transform="translate(194,0)"/>
<path d="M0 0 C9.24 0 18.48 0 28 0 C28 0.66 28 1.32 28 2 C36.58 2 45.16 2 54 2 C54 4.97 54 7.94 54 11 C54.99 11.66 55.98 12.32 57 13 C57 13.33 57 13.66 57 14 C60.96 14 64.92 14 69 14 C69 14.99 69 15.98 69 17 C55.47 17 41.94 17 28 17 C28.33 16.01 28.66 15.02 29 14 C15.14 13.505 15.14 13.505 1 13 C1 9.37 1 5.74 1 2 C0.67 1.34 0.34 0.68 0 0 Z " fill="#010101" transform="translate(111,0)"/>
<path d="M0 0 C8.91 0 17.82 0 27 0 C27 0.99 27 1.98 27 3 C36.57 3.33 46.14 3.66 56 4 C54 6 54 6 51.70944214 6.24050903 C50.75457916 6.23606781 49.79971619 6.23162659 48.81591797 6.22705078 C47.73494843 6.22689972 46.65397888 6.22674866 45.54025269 6.22659302 C44.36939117 6.21627045 43.19852966 6.20594788 41.9921875 6.1953125 C40.79643097 6.1924826 39.60067444 6.18965271 38.36868286 6.18673706 C34.53735481 6.17551305 30.70625778 6.15040431 26.875 6.125 C24.28255545 6.11497308 21.69010725 6.10584673 19.09765625 6.09765625 C12.73169158 6.07556646 6.36586229 6.04206706 0 6 C0 5.34 0 4.68 0 4 C7.26 3.67 14.52 3.34 22 3 C22 2.67 22 2.34 22 2 C14.74 2 7.48 2 0 2 C0 1.34 0 0.68 0 0 Z M-70 2 C-54.16 2 -38.32 2 -22 2 C-22.33 3.32 -22.66 4.64 -23 6 C-15.41 6 -7.82 6 0 6 C0 6.66 0 7.32 0 8 C-2.71401294 9.35700647 -4.84846316 9.1123861 -7.8828125 9.09765625 C-9.04941406 9.09443359 -10.21601563 9.09121094 -11.41796875 9.08789062 C-12.64128906 9.07951172 -13.86460937 9.07113281 -15.125 9.0625 C-16.35605469 9.05798828 -17.58710938 9.05347656 -18.85546875 9.04882812 C-21.90369392 9.0370133 -24.95182314 9.02054028 -28 9 C-27.34 8.01 -26.68 7.02 -26 6 C-28.31 6 -30.62 6 -33 6 C-33.33 6.99 -33.66 7.98 -34 9 C-80.2 9 -126.4 9 -174 9 C-174 8.67 -174 8.34 -174 8 C-151.89 8 -129.78 8 -107 8 C-107 7.34 -107 6.68 -107 6 C-95.33333333 6 -83.66666667 6 -72 6 C-69.70697516 5.92886912 -67.41401923 5.85551479 -65.12109375 5.78125 C-64.4344313 5.75905396 -63.74776886 5.73685791 -63.04029846 5.71398926 C-60.83936074 5.64281018 -58.63843033 5.57140743 -56.4375 5.5 C-54.94856818 5.45180822 -53.4596359 5.40363095 -51.97070312 5.35546875 C-48.31379661 5.23714767 -44.65689664 5.11862593 -41 5 C-41 4.67 -41 4.34 -41 4 C-50.57 3.67 -60.14 3.34 -70 3 C-70 2.67 -70 2.34 -70 2 Z M-2 2 C0 3 0 3 0 3 Z " fill="#000000" transform="translate(182,32)"/>
<path d="M0 0 C1.22283691 -0.00451172 2.44567383 -0.00902344 3.70556641 -0.01367188 C9.6454281 -0.00398073 15.58206984 0.10421889 21.515625 0.3828125 C23.09778809 0.45072998 23.09778809 0.45072998 24.71191406 0.52001953 C27.25 1.125 27.25 1.125 28.60839844 3.17138672 C28.92599121 4.13842529 28.92599121 4.13842529 29.25 5.125 C28.59 5.785 27.93 6.445 27.25 7.125 C27.25 7.455 27.25 7.785 27.25 8.125 C19 8.125 10.75 8.125 2.25 8.125 C2.25 7.795 2.25 7.465 2.25 7.125 C5.715 6.63 5.715 6.63 9.25 6.125 C9.25 5.795 9.25 5.465 9.25 5.125 C6.94 5.125 4.63 5.125 2.25 5.125 C1.92 6.115 1.59 7.105 1.25 8.125 C-12.61 8.125 -26.47 8.125 -40.75 8.125 C-40.75 5.815 -40.75 3.505 -40.75 1.125 C-27.16718097 0.43947786 -13.60107564 0.02045018 0 0 Z M29.25 1.125 C36.18 1.125 43.11 1.125 50.25 1.125 C50.25 1.455 50.25 1.785 50.25 2.125 C39.855 2.62 39.855 2.62 29.25 3.125 C29.25 2.465 29.25 1.805 29.25 1.125 Z " fill="#434343" transform="translate(152.75,24.875)"/>
<path d="M0 0 C0 0.66 0 1.32 0 2 C6.27 2.33 12.54 2.66 19 3 C19 3.99 19 4.98 19 6 C13.72 6 8.44 6 3 6 C3 6.66 3 7.32 3 8 C21.48 8.33 39.96 8.66 59 9 C59 9.33 59 9.66 59 10 C47.45 10 35.9 10 24 10 C24 10.66 24 11.32 24 12 C40.335 12.495 40.335 12.495 57 13 C57 13.33 57 13.66 57 14 C39.18 14 21.36 14 3 14 C3 13.01 3 12.02 3 11 C-0.3 10.67 -3.6 10.34 -7 10 C-7 9.67 -7 9.34 -7 9 C-17.89 8.67 -28.78 8.34 -40 8 C-40 7.67 -40 7.34 -40 7 C-24.655 6.505 -24.655 6.505 -9 6 C-9 5.34 -9 4.68 -9 4 C-18.57 4 -28.14 4 -38 4 C-36 1 -36 1 -33.97558594 0.56762695 C-33.15348633 0.54144287 -32.33138672 0.51525879 -31.484375 0.48828125 C-30.56865723 0.45275146 -29.65293945 0.41722168 -28.70947266 0.38061523 C-27.73284668 0.35813721 -26.7562207 0.33565918 -25.75 0.3125 C-24.76177246 0.27906494 -23.77354492 0.24562988 -22.75537109 0.21118164 C-15.17087003 -0.02664479 -7.58769955 -0.11653463 0 0 Z " fill="#9E9D9E" transform="translate(242,0)"/>
<path d="M0 0 C6.93 0 13.86 0 21 0 C21 0.66 21 1.32 21 2 C20.01 2 19.02 2 18 2 C18 2.99 18 3.98 18 5 C19.98 5 21.96 5 24 5 C23.505 3.515 23.505 3.515 23 2 C23.9787207 1.97494385 24.95744141 1.9498877 25.96582031 1.92407227 C29.60380704 1.82976017 33.24161343 1.72959797 36.87939453 1.62768555 C38.45259374 1.58442662 40.02583717 1.54274526 41.59912109 1.50268555 C43.86309115 1.44476338 46.12684051 1.38113286 48.390625 1.31640625 C49.44240936 1.29133751 49.44240936 1.29133751 50.51544189 1.26576233 C53.80233821 1.16648978 56.85142005 0.99187328 60 0 C60.625 2.375 60.625 2.375 61 5 C58.60236815 7.39763185 57.66726502 7.34280586 54.375 7.625 C53.14910156 7.73714844 53.14910156 7.73714844 51.8984375 7.8515625 C50.95871094 7.92503906 50.95871094 7.92503906 50 8 C50 8.33 50 8.66 50 9 C48.89543457 9.03758423 48.89543457 9.03758423 47.76855469 9.07592773 C44.42886622 9.19204273 41.08944903 9.31469918 37.75 9.4375 C36.59113281 9.47681641 35.43226563 9.51613281 34.23828125 9.55664062 C33.12324219 9.59853516 32.00820312 9.64042969 30.859375 9.68359375 C29.31975098 9.73858032 29.31975098 9.73858032 27.74902344 9.79467773 C25.36389113 9.97282128 23.28700501 10.32777363 21 11 C21 10.67 21 10.34 21 10 C13.74 9.67 6.48 9.34 -1 9 C-1 9.66 -1 10.32 -1 11 C-5.95 11 -10.9 11 -16 11 C-16 10.01 -16 9.02 -16 8 C-11.05 7.67 -6.1 7.34 -1 7 C-1 5.68 -1 4.36 -1 3 C-0.67 2.01 -0.34 1.02 0 0 Z M-1 3 C-1 3.66 -1 4.32 -1 5 C-5.62 5 -10.24 5 -15 5 C-15 4.67 -15 4.34 -15 4 C-13.04175306 3.83232136 -11.08339945 3.66588795 -9.125 3.5 C-7.48917969 3.36078125 -7.48917969 3.36078125 -5.8203125 3.21875 C-4.21670436 3.09437042 -2.60842449 3 -1 3 Z " fill="#9A9A9A" transform="translate(183,15)"/>
<path d="M0 0 C15.51 0 31.02 0 47 0 C47 2.31 47 4.62 47 7 C42.6991499 7.14539828 38.39820923 7.28764506 34.09716797 7.42724609 C32.64076069 7.47492895 31.18437905 7.52340289 29.72802734 7.57275391 C25.50650445 7.71551072 21.28504014 7.84177602 17.06237793 7.94580078 C15.68861372 7.98190326 14.31497692 8.02323627 12.94152832 8.06982422 C11.00572015 8.13409704 9.06923479 8.17688141 7.1328125 8.21875 C6.0205127 8.24904297 4.90821289 8.27933594 3.76220703 8.31054688 C1 8 1 8 -0.40014648 6.51831055 C-3.02207954 4.03001486 -6.29645426 4.51841356 -9.73046875 4.48828125 C-10.48088943 4.47033005 -11.23131012 4.45237885 -12.00447083 4.43388367 C-14.3987569 4.37974813 -16.79284331 4.34587584 -19.1875 4.3125 C-20.81187677 4.27932964 -22.43622717 4.24484024 -24.06054688 4.20898438 C-28.04022056 4.1240203 -32.0198347 4.05722535 -36 4 C-36 3.34 -36 2.68 -36 2 C-24.12 2 -12.24 2 0 2 C0 1.34 0 0.68 0 0 Z M-38 4 C-26.45 4.33 -14.9 4.66 -3 5 C-3 5.33 -3 5.66 -3 6 C-14.55 6 -26.1 6 -38 6 C-38 5.34 -38 4.68 -38 4 Z M-40 6 C-20.695 6.495 -20.695 6.495 -1 7 C-1 7.33 -1 7.66 -1 8 C-13.87 8 -26.74 8 -40 8 C-40 7.34 -40 6.68 -40 6 Z " fill="#111010" transform="translate(62,30)"/>
<path d="M0 0 C19.47 0 38.94 0 59 0 C58.34 0.33 57.68 0.66 57 1 C56.67 2.32 56.34 3.64 56 5 C38.18 5.33 20.36 5.66 2 6 C2 6.33 2 6.66 2 7 C-2.95 7 -7.9 7 -13 7 C-13 5.68 -13 4.36 -13 3 C-8.71 3 -4.42 3 0 3 C0 2.01 0 1.02 0 0 Z " fill="#282727" transform="translate(13,51)"/>
<path d="M0 0 C2.01253862 -0.00975422 4.02407531 -0.04084259 6.03637695 -0.07226562 C7.30932617 -0.07742188 8.58227539 -0.08257812 9.89379883 -0.08789062 C11.63705444 -0.10190918 11.63705444 -0.10190918 13.41552734 -0.11621094 C16.75517237 0.27577248 17.96482683 1.0763283 20.45239258 3.24023438 C22.80091484 3.8071272 22.80091484 3.8071272 25.20239258 3.92773438 C26.00161133 3.99347656 26.80083008 4.05921875 27.62426758 4.12695312 C28.22754883 4.16433594 28.83083008 4.20171875 29.45239258 4.24023438 C29.45239258 4.57023437 29.45239258 4.90023438 29.45239258 5.24023438 C20.6900181 5.39434332 11.92756899 5.5425218 3.16496849 5.68319798 C-0.90415551 5.74870926 -4.9732249 5.8162379 -9.04223633 5.88842773 C-12.97141195 5.95806161 -16.90064253 6.02232986 -20.8299675 6.08292961 C-22.32664533 6.10694528 -23.82329381 6.13287142 -25.31990433 6.16076851 C-27.42131211 6.19960789 -29.52272307 6.23156068 -31.62426758 6.26196289 C-32.8189566 6.28194839 -34.01364563 6.3019339 -35.24453735 6.32252502 C-38.44359467 6.24282568 -41.41021787 5.84960587 -44.54760742 5.24023438 C-44.54760742 4.91023438 -44.54760742 4.58023437 -44.54760742 4.24023438 C-35.30760742 4.24023438 -26.06760742 4.24023438 -16.54760742 4.24023438 C-16.87760742 3.25023437 -17.20760742 2.26023437 -17.54760742 1.24023438 C-11.73105863 -0.12130326 -5.94653319 0.01746626 0 0 Z M-72.54760742 6.24023438 C-61.32760742 6.24023438 -50.10760742 6.24023438 -38.54760742 6.24023438 C-38.54760742 6.57023437 -38.54760742 6.90023438 -38.54760742 7.24023438 C-28.97760742 7.57023437 -19.40760742 7.90023438 -9.54760742 8.24023438 C-9.54760742 9.23023438 -9.54760742 10.22023438 -9.54760742 11.24023438 C-29.89635095 12.10731592 -50.18294553 12.37068702 -70.54760742 12.24023438 C-70.87760742 11.25023437 -71.20760742 10.26023437 -71.54760742 9.24023438 C-63.62760742 9.24023438 -55.70760742 9.24023438 -47.54760742 9.24023438 C-47.54760742 8.58023437 -47.54760742 7.92023437 -47.54760742 7.24023438 C-55.79760742 7.24023438 -64.04760742 7.24023438 -72.54760742 7.24023438 C-72.54760742 6.91023438 -72.54760742 6.58023437 -72.54760742 6.24023438 Z " fill="#484848" transform="translate(280.547607421875,15.759765625)"/>
<path d="M0 0 C3.96 0 7.92 0 12 0 C12 0.33 12 0.66 12 1 C18.6 1.33 25.2 1.66 32 2 C32 2.33 32 2.66 32 3 C75.56 3.33 119.12 3.66 164 4 C164 4.33 164 4.66 164 5 C86.78 5 9.56 5 -70 5 C-70 4.67 -70 4.34 -70 4 C-52.675 3.505 -52.675 3.505 -35 3 C-35 2.67 -35 2.34 -35 2 C-23.45 1.67 -11.9 1.34 0 1 C0 0.67 0 0.34 0 0 Z " fill="#F2F2F2" transform="translate(146,37)"/>
<path d="M0 0 C9.24 0 18.48 0 28 0 C27.67 1.65 27.34 3.3 27 5 C27.33 4.67 27.66 4.34 28 4 C30.14558827 3.91224395 32.29404421 3.89304781 34.44140625 3.90234375 C35.74658203 3.90556641 37.05175781 3.90878906 38.39648438 3.91210938 C39.7851569 3.92046599 41.17382877 3.92893095 42.5625 3.9375 C43.95507656 3.94251334 45.34765481 3.94707653 46.74023438 3.95117188 C50.1601987 3.96300566 53.58007844 3.9794912 57 4 C57 5.65 57 7.3 57 9 C38.85 9 20.7 9 2 9 C2 8.34 2 7.68 2 7 C-0.31 7.33 -2.62 7.66 -5 8 C-5 7.34 -5 6.68 -5 6 C-8.63 5.67 -12.26 5.34 -16 5 C-15.67 4.01 -15.34 3.02 -15 2 C-10.05 2 -5.1 2 0 2 C0 1.34 0 0.68 0 0 Z " fill="#040404" transform="translate(52,6)"/>
<path d="M0 0 C1.65 0 3.3 0 5 0 C3.02 0.99 3.02 0.99 1 2 C0.67 1.34 0.34 0.68 0 0 Z M-16 2 C-10.72 2 -5.44 2 0 2 C0 2.33 0 2.66 0 3 C-7.92 3.495 -7.92 3.495 -16 4 C-16 3.34 -16 2.68 -16 2 Z M-17 4 C-16.505 4.99 -16.505 4.99 -16 6 C9.08 6 34.16 6 60 6 C60 7.65 60 9.3 60 11 C49.44 11 38.88 11 28 11 C28 10.67 28 10.34 28 10 C12.82 9.67 -2.36 9.34 -18 9 C-18 8.34 -18 7.68 -18 7 C-28.23 7 -38.46 7 -49 7 C-49 6.67 -49 6.34 -49 6 C-38.44 6 -27.88 6 -17 6 C-17 5.34 -17 4.68 -17 4 Z " fill="#090909" transform="translate(49,18)"/>
<path d="M0 0 C18.15 0 36.3 0 55 0 C55 0.33 55 0.66 55 1 C53.02 1 51.04 1 49 1 C49 1.66 49 2.32 49 3 C43.72 3 38.44 3 33 3 C32.67 4.32 32.34 5.64 32 7 C21.44 7 10.88 7 0 7 C0 4.69 0 2.38 0 0 Z " fill="#4A494A" transform="translate(0,17)"/>
<path d="M0 0 C12.87 0 25.74 0 39 0 C39 0.33 39 0.66 39 1 C42.96 1.33 46.92 1.66 51 2 C51 2.33 51 2.66 51 3 C49.02 3 47.04 3 45 3 C45 3.66 45 4.32 45 5 C47.31 5.33 49.62 5.66 52 6 C52 6.33 52 6.66 52 7 C45.4 7 38.8 7 32 7 C32 6.67 32 6.34 32 6 C21.44 5.67 10.88 5.34 0 5 C0 3.35 0 1.7 0 0 Z " fill="#201F20" transform="translate(0,1)"/>
<path d="M0 0 C11.88 0 23.76 0 36 0 C36.495 1.98 36.495 1.98 37 4 C35.03177114 5.96822886 31.65191291 5.66248381 29 6 C28.67 6.99 28.34 7.98 28 9 C18.76 9 9.52 9 0 9 C0 6.03 0 3.06 0 0 Z " fill="#1E1E1E" transform="translate(0,6)"/>
<path d="M0 0 C5.61 0 11.22 0 17 0 C16.67 0.99 16.34 1.98 16 3 C30.34700641 3.87999163 44.62744208 4.12713885 59 4 C59.495 5.485 59.495 5.485 60 7 C51.75 7 43.5 7 35 7 C35 7.66 35 8.32 35 9 C27.41 9 19.82 9 12 9 C12.33 7.68 12.66 6.36 13 5 C6.73 5 0.46 5 -6 5 C-6 4.67 -6 4.34 -6 4 C-3.36 3.67 -0.72 3.34 2 3 C1.34 2.01 0.68 1.02 0 0 Z " fill="#808080" transform="translate(147,29)"/>
<path d="M0 0 C9.57 0 19.14 0 29 0 C29 0.99 29 1.98 29 3 C31.97 3 34.94 3 38 3 C38 6.3 38 9.6 38 13 C32.72 13 27.44 13 22 13 C22.33 11.68 22.66 10.36 23 9 C21.02 9 19.04 9 17 9 C17.99 8.01 18.98 7.02 20 6 C18.21142578 5.92652344 18.21142578 5.92652344 16.38671875 5.8515625 C14.82028932 5.77652396 13.25388421 5.7009766 11.6875 5.625 C10.90181641 5.5940625 10.11613281 5.563125 9.30664062 5.53125 C8.54931641 5.49257813 7.79199219 5.45390625 7.01171875 5.4140625 C5.96697388 5.36693115 5.96697388 5.36693115 4.90112305 5.31884766 C3 5 3 5 0 3 C7.59 2.67 15.18 2.34 23 2 C11.615 1.505 11.615 1.505 0 1 C0 0.67 0 0.34 0 0 Z " fill="#6E6D6E" transform="translate(272,23)"/>
<path d="M0 0 C0 0.99 0 1.98 0 3 C6.93 3.495 6.93 3.495 14 4 C14 4.33 14 4.66 14 5 C10.37 5 6.74 5 3 5 C3 5.66 3 6.32 3 7 C8.445 7.495 8.445 7.495 14 8 C14 8.33 14 8.66 14 9 C2.12 9 -9.76 9 -22 9 C-22.33 8.01 -22.66 7.02 -23 6 C-28.9172559 4.78174143 -34.85751516 4.66352622 -40.875 4.4375 C-41.94492188 4.39431641 -43.01484375 4.35113281 -44.1171875 4.30664062 C-46.74467754 4.20107183 -49.37225422 4.09896209 -52 4 C-52 3.01 -52 2.02 -52 1 C-34.65725901 0.0948264 -17.36459701 -0.12585848 0 0 Z " fill="#6B6B6B" transform="translate(164,13)"/>
<path d="M0 0 C17.49 0 34.98 0 53 0 C52.67 1.32 52.34 2.64 52 4 C33.85 4 15.7 4 -3 4 C-2.34 3.67 -1.68 3.34 -1 3 C-0.67 2.01 -0.34 1.02 0 0 Z " fill="#5F5E5E" transform="translate(183,37)"/>
<path d="M0 0 C22.44 0 44.88 0 68 0 C62.29625435 2.85187283 57.66577785 3.19729225 51.34375 3.3515625 C50.48680542 3.37471527 49.62986084 3.39786804 48.74694824 3.42172241 C46.92461992 3.46934948 45.10222777 3.51458506 43.27978516 3.55761719 C40.56511479 3.6234216 37.85101954 3.70181189 35.13671875 3.78125 C23.04133427 4.09959311 11.07348292 3.77373238 -1 3 C-0.67 2.01 -0.34 1.02 0 0 Z " fill="#434343" transform="translate(242,0)"/>
<path d="M0 0 C8.91 0 17.82 0 27 0 C27 0.66 27 1.32 27 2 C31.95 2 36.9 2 42 2 C42 2.99 42 3.98 42 5 C33.75 5 25.5 5 17 5 C17 4.67 17 4.34 17 4 C20.465 3.505 20.465 3.505 24 3 C24 2.67 24 2.34 24 2 C21.69 2 19.38 2 17 2 C16.67 2.99 16.34 3.98 16 5 C2.14 5 -11.72 5 -26 5 C-26 4.01 -26 3.02 -26 2 C-17.42 1.67 -8.84 1.34 0 1 C0 0.67 0 0.34 0 0 Z " fill="#000000" transform="translate(138,28)"/>
<path d="M0 0 C5.33852794 -0.0494731 10.67692214 -0.08575425 16.015625 -0.10986328 C17.83140386 -0.11991491 19.64716656 -0.13355828 21.46289062 -0.15087891 C24.07425935 -0.17516406 26.68541387 -0.18649148 29.296875 -0.1953125 C30.10743347 -0.20563507 30.91799194 -0.21595764 31.75311279 -0.22659302 C38.71585532 -0.22797609 38.71585532 -0.22797609 42 2 C42 1.34 42 0.68 42 0 C51.9 0 61.8 0 72 0 C72 0.99 72 1.98 72 3 C47.58 3 23.16 3 -2 3 C-1.34 2.67 -0.68 2.34 0 2 C0 1.34 0 0.68 0 0 Z " fill="#000000" transform="translate(238,38)"/>
<path d="M0 0 C14.19 0 28.38 0 43 0 C43 2.97 43 5.94 43 9 C29.8 9 16.6 9 3 9 C2.67 8.01 2.34 7.02 2 6 C2.91813477 5.98018066 3.83626953 5.96036133 4.78222656 5.93994141 C8.19671825 5.86173045 11.61077702 5.77503416 15.02490234 5.68261719 C16.50105536 5.64439334 17.97729943 5.60952897 19.45361328 5.578125 C21.57878094 5.53233014 23.70332542 5.47436163 25.828125 5.4140625 C27.7447998 5.36693115 27.7447998 5.36693115 29.70019531 5.31884766 C32.72537324 5.02653615 34.46049109 4.59418511 37 3 C37 2.34 37 1.68 37 1 C24.79 1 12.58 1 0 1 C0 0.67 0 0.34 0 0 Z " fill="#B7B6B6" transform="translate(267,11)"/>
<path d="M0 0 C1.1707608 0.0001133 1.1707608 0.0001133 2.36517334 0.00022888 C3.19760559 0.00539017 4.03003784 0.01055145 4.88769531 0.01586914 C6.17767426 0.01799156 6.17767426 0.01799156 7.49371338 0.02015686 C10.2344514 0.02574442 12.97510707 0.03829465 15.71582031 0.05102539 C17.57649621 0.056042 19.4371734 0.06060462 21.29785156 0.06469727 C25.85387277 0.07570978 30.40983259 0.09296588 34.96582031 0.11352539 C34.96582031 0.44352539 34.96582031 0.77352539 34.96582031 1.11352539 C41.89582031 1.44352539 48.82582031 1.77352539 55.96582031 2.11352539 C55.30582031 3.10352539 54.64582031 4.09352539 53.96582031 5.11352539 C51.71923828 5.45410156 51.71923828 5.45410156 48.95800781 5.40649414 C47.971875 5.39682617 46.98574219 5.3871582 45.96972656 5.37719727 C44.9371875 5.35206055 43.90464844 5.32692383 42.84082031 5.30102539 C41.28041016 5.28072266 41.28041016 5.28072266 39.68847656 5.26000977 C37.11374404 5.22457767 34.54003701 5.1751776 31.96582031 5.11352539 C31.96582031 4.78352539 31.96582031 4.45352539 31.96582031 4.11352539 C30.25483154 4.08379639 30.25483154 4.08379639 28.50927734 4.0534668 C24.28606709 3.97751972 20.06320632 3.88878611 15.84033203 3.79614258 C14.01097502 3.75780762 12.18154147 3.72296276 10.35205078 3.69165039 C7.72563272 3.64609734 5.09974372 3.58808808 2.47363281 3.52758789 C1.65275177 3.51603668 0.83187073 3.50448547 -0.0138855 3.49258423 C-5.80643627 3.3412688 -5.80643627 3.3412688 -8.03417969 1.11352539 C-5.28522376 0.33830868 -2.853029 -0.00926308 0 0 Z " fill="#2B2B2B" transform="translate(206.0341796875,7.886474609375)"/>
<path d="M0 0 C2.01253862 -0.00975422 4.02407531 -0.04084259 6.03637695 -0.07226562 C7.30932617 -0.07742188 8.58227539 -0.08257812 9.89379883 -0.08789062 C11.63705444 -0.10190918 11.63705444 -0.10190918 13.41552734 -0.11621094 C16.75517237 0.27577248 17.96482683 1.0763283 20.45239258 3.24023438 C22.80091484 3.8071272 22.80091484 3.8071272 25.20239258 3.92773438 C26.00161133 3.99347656 26.80083008 4.05921875 27.62426758 4.12695312 C28.22754883 4.16433594 28.83083008 4.20171875 29.45239258 4.24023438 C29.45239258 4.57023437 29.45239258 4.90023438 29.45239258 5.24023438 C20.6900181 5.39434332 11.92756899 5.5425218 3.16496849 5.68319798 C-0.90415551 5.74870926 -4.9732249 5.8162379 -9.04223633 5.88842773 C-12.97141195 5.95806161 -16.90064253 6.02232986 -20.8299675 6.08292961 C-22.32664533 6.10694528 -23.82329381 6.13287142 -25.31990433 6.16076851 C-27.42131211 6.19960789 -29.52272307 6.23156068 -31.62426758 6.26196289 C-32.8189566 6.28194839 -34.01364563 6.3019339 -35.24453735 6.32252502 C-38.44359467 6.24282568 -41.41021787 5.84960587 -44.54760742 5.24023438 C-44.54760742 4.91023438 -44.54760742 4.58023437 -44.54760742 4.24023438 C-35.30760742 4.24023438 -26.06760742 4.24023438 -16.54760742 4.24023438 C-16.87760742 3.25023437 -17.20760742 2.26023437 -17.54760742 1.24023438 C-11.73105863 -0.12130326 -5.94653319 0.01746626 0 0 Z M-40.54760742 6.24023438 C-38.54760742 7.24023438 -38.54760742 7.24023438 -38.54760742 7.24023438 Z " fill="#020202" transform="translate(280.547607421875,15.759765625)"/>
<path d="M0 0 C1.98 0 3.96 0 6 0 C6 0.66 6 1.32 6 2 C6.6712793 1.99476318 7.34255859 1.98952637 8.03417969 1.98413086 C25.72132407 1.86599724 43.33015066 2.24269197 61 3 C61 3.33 61 3.66 61 4 C36.28720322 5.0513704 11.69890709 5.56110474 -13 4 C-13 3.67 -13 3.34 -13 3 C-12.14535156 2.95101563 -11.29070313 2.90203125 -10.41015625 2.8515625 C-9.30542969 2.77679688 -8.20070313 2.70203125 -7.0625 2.625 C-5.40927734 2.52058594 -5.40927734 2.52058594 -3.72265625 2.4140625 C-2.37494141 2.20910156 -2.37494141 2.20910156 -1 2 C-0.67 1.34 -0.34 0.68 0 0 Z M6 5 C6.66 5.66 7.32 6.32 8 7 C6.02 7 4.04 7 2 7 C3.32 6.34 4.64 5.68 6 5 Z " fill="#161516" transform="translate(48,13)"/>
<path d="M0 0 C2.29141286 -0.05384521 4.58318188 -0.09272087 6.875 -0.125 C8.78925781 -0.15980469 8.78925781 -0.15980469 10.7421875 -0.1953125 C14 0 14 0 16 2 C16 1.34 16 0.68 16 0 C17.32 0.66 18.64 1.32 20 2 C20 1.34 20 0.68 20 0 C33.2 0 46.4 0 60 0 C55.811185 3.14161125 55.19357298 3.37296619 50.31347656 3.34057617 C48.60215546 3.34023628 48.60215546 3.34023628 46.85626221 3.33988953 C45.63010193 3.32440567 44.40394165 3.30892181 43.140625 3.29296875 C41.88111023 3.28872391 40.62159546 3.28447906 39.32391357 3.28010559 C35.98311462 3.26616121 32.64293416 3.23922925 29.30230713 3.20599365 C25.89039442 3.17524839 22.4784177 3.16159079 19.06640625 3.14648438 C12.37743351 3.11339814 5.68875246 3.06318524 -1 3 C-0.67 2.01 -0.34 1.02 0 0 Z " fill="#3A3A3A" transform="translate(245,6)"/>
<path d="M0 0 C13.53 0 27.06 0 41 0 C41 0.33 41 0.66 41 1 C43.475 1.495 43.475 1.495 46 2 C46 2.33 46 2.66 46 3 C44.02 3 42.04 3 40 3 C39.67 3.99 39.34 4.98 39 6 C37.02 5.67 35.04 5.34 33 5 C33 4.67 33 4.34 33 4 C21.78 3.67 10.56 3.34 -1 3 C-0.67 2.01 -0.34 1.02 0 0 Z " fill="#777677" transform="translate(199,11)"/>
<path d="M0 0 C7.92 0 15.84 0 24 0 C23.01 0.495 23.01 0.495 22 1 C22 2.65 22 4.3 22 6 C14.74 6 7.48 6 0 6 C0 4 0 2 0 0 Z M0 2 C0 2.66 0 3.32 0 4 C-1.32 3.67 -2.64 3.34 -4 3 C-2 2 -2 2 0 2 Z M0 6 C0 6.66 0 7.32 0 8 C-5.94 8 -11.88 8 -18 8 C-18 7.67 -18 7.34 -18 7 C-15.37504621 6.83257698 -12.75004205 6.6660283 -10.125 6.5 C-9.00544922 6.42845703 -9.00544922 6.42845703 -7.86328125 6.35546875 C-2.2265625 6 -2.2265625 6 0 6 Z " fill="#8E8E8E" transform="translate(182,24)"/>
<path d="M0 0 C8.91 0 17.82 0 27 0 C26.67 1.65 26.34 3.3 26 5 C17.42 5 8.84 5 0 5 C0 3.35 0 1.7 0 0 Z " fill="#1B1A1A" transform="translate(0,18)"/>
<path d="M0 0 C2.31 0.33 4.62 0.66 7 1 C7 1.66 7 2.32 7 3 C-0.53595866 4.28453841 -7.88591104 3.89909844 -15.5 3.5625 C-16.799375 3.51029297 -18.09875 3.45808594 -19.4375 3.40429688 C-22.62528846 3.27537896 -25.81270218 3.14044748 -29 3 C-29 3.66 -29 4.32 -29 5 C-29.66 5 -30.32 5 -31 5 C-31 5.66 -31 6.32 -31 7 C-38.92 7 -46.84 7 -55 7 C-55 6.01 -55 5.02 -55 4 C-51.87501937 3.97104024 -48.7500731 3.95321517 -45.625 3.9375 C-44.73554687 3.92912109 -43.84609375 3.92074219 -42.9296875 3.91210938 C-41.65351562 3.90727539 -41.65351562 3.90727539 -40.3515625 3.90234375 C-39.56604004 3.89710693 -38.78051758 3.89187012 -37.97119141 3.88647461 C-36 4 -36 4 -34 5 C-33.67 4.01 -33.34 3.02 -33 2 C-22.11 2 -11.22 2 0 2 C0 1.34 0 0.68 0 0 Z " fill="#585758" transform="translate(55,29)"/>
<path d="M0 0 C36.3 0 72.6 0 110 0 C110 0.33 110 0.66 110 1 C90.53 1.33 71.06 1.66 51 2 C51 2.33 51 2.66 51 3 C46.38 3 41.76 3 37 3 C37 2.67 37 2.34 37 2 C18.685 1.505 18.685 1.505 0 1 C0 0.67 0 0.34 0 0 Z " fill="#010101" transform="translate(0,0)"/>
<path d="M0 0 C1.05960938 0.00676758 1.05960938 0.00676758 2.140625 0.01367188 C3.88545275 0.02546125 5.630237 0.04339676 7.375 0.0625 C7.375 1.0525 7.375 2.0425 7.375 3.0625 C4.97917654 4.26041173 3.50722462 4.1831744 0.83349609 4.17602539 C-0.10732819 4.17594986 -1.04815247 4.17587433 -2.01748657 4.17579651 C-3.03523163 4.17063522 -4.05297668 4.16547394 -5.1015625 4.16015625 C-6.14194672 4.1587413 -7.18233093 4.15732635 -8.25424194 4.15586853 C-11.58619021 4.15025866 -14.91807195 4.13770447 -18.25 4.125 C-20.50520736 4.11998627 -22.76041578 4.11542314 -25.015625 4.11132812 C-30.55210614 4.10028603 -36.08854832 4.08353827 -41.625 4.0625 C-41.625 3.4025 -41.625 2.7425 -41.625 2.0625 C-40.18664795 2.02491577 -40.18664795 2.02491577 -38.71923828 1.98657227 C-35.16701523 1.8925138 -31.61498844 1.79228942 -28.06298828 1.69018555 C-26.52462347 1.64683074 -24.98621037 1.60515605 -23.44775391 1.56518555 C-21.2384586 1.50749602 -19.02940652 1.44379821 -16.8203125 1.37890625 C-16.13067413 1.36219376 -15.44103577 1.34548126 -14.73049927 1.32826233 C-9.64065657 1.16976744 -5.18671383 -0.06220229 0 0 Z " fill="#535353" transform="translate(41.625,74.9375)"/>
<path d="M0 0 C6.93 0 13.86 0 21 0 C21 0.33 21 0.66 21 1 C17.04 1 13.08 1 9 1 C9 1.66 9 2.32 9 3 C42.165 3.495 42.165 3.495 76 4 C76 4.33 76 4.66 76 5 C50.92 5 25.84 5 0 5 C0 3.35 0 1.7 0 0 Z " fill="#272526" transform="translate(0,37)"/>
<path d="M0 0 C13.2 0 26.4 0 40 0 C40 0.33 40 0.66 40 1 C28.45 1 16.9 1 5 1 C5 1.66 5 2.32 5 3 C21.335 3.495 21.335 3.495 38 4 C38 4.33 38 4.66 38 5 C20.18 5 2.36 5 -16 5 C-16 4.01 -16 3.02 -16 2 C-8.08 1.505 -8.08 1.505 0 1 C0 0.67 0 0.34 0 0 Z " fill="#D0D0D0" transform="translate(261,9)"/>
<path d="M0 0 C1.16015625 0.00322266 2.3203125 0.00644531 3.515625 0.00976562 C5.32546875 0.02233398 5.32546875 0.02233398 7.171875 0.03515625 C9.00492188 0.04192383 9.00492188 0.04192383 10.875 0.04882812 C13.89067446 0.0606081 16.90624998 0.07705772 19.921875 0.09765625 C19.261875 2.07765625 18.601875 4.05765625 17.921875 6.09765625 C8.681875 6.09765625 -0.558125 6.09765625 -10.078125 6.09765625 C-10.078125 4.44765625 -10.078125 2.79765625 -10.078125 1.09765625 C-6.66747361 0.05791126 -3.55547658 -0.01742881 0 0 Z " fill="#141313" transform="translate(10.078125,8.90234375)"/>
<path d="M0 0 C17.01765263 -0.18211519 33.99653425 0.38264744 51 1 C51 1.99 51 2.98 51 4 C46.6991499 4.14539828 42.39820923 4.28764506 38.09716797 4.42724609 C36.64076069 4.47492895 35.18437905 4.52340289 33.72802734 4.57275391 C29.50353065 4.71561128 25.27925931 4.83494358 21.05358887 4.93701172 C19.03247067 4.99900405 17.01623349 5.09979477 14.99707031 5.20703125 C5.9532207 5.53770217 5.9532207 5.53770217 3.02294922 3.88476562 C1.625 2.5 1.625 2.5 0 0 Z " fill="#1E1D1D" transform="translate(58,33)"/>
<path d="M0 0 C8.58 0 17.16 0 26 0 C25.34 0.66 24.68 1.32 24 2 C24.99 2.66 25.98 3.32 27 4 C25 6 25 6 21.92724609 6.22705078 C20.63898926 6.21657715 19.35073242 6.20610352 18.0234375 6.1953125 C17.33819 6.1924826 16.6529425 6.18965271 15.94692993 6.18673706 C13.75610973 6.17553281 11.56569684 6.15042859 9.375 6.125 C7.8906309 6.11497048 6.4062554 6.10584458 4.921875 6.09765625 C1.28111739 6.07559294 -2.35940156 6.04106176 -6 6 C-5.34 5.67 -4.68 5.34 -4 5 C-4 4.34 -4 3.68 -4 3 C-2.68 3 -1.36 3 0 3 C0 2.01 0 1.02 0 0 Z " fill="#383838" transform="translate(205,15)"/>
<path d="M0 0 C7.59 0 15.18 0 23 0 C22.67 0.99 22.34 1.98 22 3 C27.28 3 32.56 3 38 3 C38 3.33 38 3.66 38 4 C25.6220506 4.12350504 13.35134354 3.82637424 1 3 C0.67 2.01 0.34 1.02 0 0 Z M-33 3 C-21.78 3 -10.56 3 1 3 C1 3.33 1 3.66 1 4 C-10.22 4 -21.44 4 -33 4 C-33 3.67 -33 3.34 -33 3 Z " fill="#0C0B0C" transform="translate(272,33)"/>
<path d="M0 0 C11.22 0 22.44 0 34 0 C33.34 0.99 32.68 1.98 32 3 C32.99 3.66 33.98 4.32 35 5 C26.09 5 17.18 5 8 5 C8.33 4.01 8.66 3.02 9 2 C6.03 2 3.06 2 0 2 C0 1.34 0 0.68 0 0 Z M-12 2 C-8.04 2 -4.08 2 0 2 C-0.33 2.99 -0.66 3.98 -1 5 C-4.63 5.33 -8.26 5.66 -12 6 C-12.33 5.34 -12.66 4.68 -13 4 C-12.67 3.34 -12.34 2.68 -12 2 Z " fill="#010101" transform="translate(194,0)"/>
<path d="M0 0 C20.46 0 40.92 0 62 0 C62 0.33 62 0.66 62 1 C48.8 1 35.6 1 22 1 C22 1.66 22 2.32 22 3 C14.74 3 7.48 3 0 3 C0 2.01 0 1.02 0 0 Z " fill="#717071" transform="translate(0,65)"/>
<path d="M0 0 C12.21 0 24.42 0 37 0 C37 0.33 37 0.66 37 1 C33.37 1 29.74 1 26 1 C26 1.66 26 2.32 26 3 C31.445 3.495 31.445 3.495 37 4 C37 4.33 37 4.66 37 5 C25.12 5 13.24 5 1 5 C0.67 3.35 0.34 1.7 0 0 Z " fill="#CDCDCD" transform="translate(141,17)"/>
<path d="M0 0 C16.83 0 33.66 0 51 0 C50.34 0.99 49.68 1.98 49 3 C46.89926147 3.36076355 46.89926147 3.36076355 44.27490234 3.34057617 C43.29403656 3.34034958 42.31317078 3.34012299 41.30258179 3.33988953 C40.24108917 3.32440567 39.17959656 3.30892181 38.0859375 3.29296875 C37.00116119 3.28872391 35.91638489 3.28447906 34.79873657 3.28010559 C31.32390833 3.263273 27.84965382 3.22561189 24.375 3.1875 C22.02344586 3.17245911 19.67188265 3.15876967 17.3203125 3.14648438 C11.54667827 3.11335454 5.77338011 3.06310982 0 3 C0 2.01 0 1.02 0 0 Z " fill="#010101" transform="translate(112,18)"/>
<path d="M0 0 C21.45 0 42.9 0 65 0 C65 0.33 65 0.66 65 1 C49.82 1 34.64 1 19 1 C19 1.66 19 2.32 19 3 C12.73 3 6.46 3 0 3 C0 2.01 0 1.02 0 0 Z " fill="#696868" transform="translate(0,61)"/>
<path d="M0 0 C0.99 0 1.98 0 3 0 C3.625 2.375 3.625 2.375 4 5 C2 7 2 7 -0.3125 7.23046875 C-1.199375 7.21628906 -2.08625 7.20210937 -3 7.1875 C-4.3303125 7.17783203 -4.3303125 7.17783203 -5.6875 7.16796875 C-8 7 -8 7 -10 6 C-11.73868744 5.84733388 -13.48247501 5.75067404 -15.2265625 5.68359375 C-16.2578125 5.64169922 -17.2890625 5.59980469 -18.3515625 5.55664062 C-19.43179688 5.51732422 -20.51203125 5.47800781 -21.625 5.4375 C-22.71296875 5.39431641 -23.8009375 5.35113281 -24.921875 5.30664062 C-27.6144517 5.2003547 -30.30712253 5.09831943 -33 5 C-33.33 4.01 -33.66 3.02 -34 2 C-32.50835327 1.96241577 -32.50835327 1.96241577 -30.98657227 1.92407227 C-27.30951253 1.83015118 -23.6326485 1.72989381 -19.95581055 1.62768555 C-18.362107 1.58427854 -16.7683552 1.54260781 -15.17456055 1.50268555 C-12.88836092 1.44512193 -10.60240551 1.38138851 -8.31640625 1.31640625 C-7.2413961 1.29133751 -7.2413961 1.29133751 -6.14466858 1.26576233 C-2.78472618 1.44981346 -2.78472618 1.44981346 0 0 Z " fill="#8F8E8E" transform="translate(240,15)"/>
<path d="M0 0 C12.37405198 -0.13305432 24.64938342 0.23322114 37 1 C37 1.33 37 1.66 37 2 C27.1 2 17.2 2 7 2 C7 2.66 7 3.32 7 4 C-6.53 4 -20.06 4 -34 4 C-34 3.67 -34 3.34 -34 3 C-16.675 2.505 -16.675 2.505 1 2 C0.505 1.01 0.505 1.01 0 0 Z " fill="#949494" transform="translate(273,36)"/>
<path d="M0 0 C0.87454834 0.00523682 1.74909668 0.01047363 2.65014648 0.01586914 C3.59438477 0.0190918 4.53862305 0.02231445 5.51147461 0.02563477 C6.50469727 0.03401367 7.49791992 0.04239258 8.52124023 0.05102539 C9.51833008 0.05553711 10.51541992 0.06004883 11.54272461 0.06469727 C14.01478872 0.07652532 16.48673541 0.0930069 18.95874023 0.11352539 C18.95874023 0.77352539 18.95874023 1.43352539 18.95874023 2.11352539 C17.96874023 2.11352539 16.97874023 2.11352539 15.95874023 2.11352539 C15.95874023 3.10352539 15.95874023 4.09352539 15.95874023 5.11352539 C10.01874023 5.11352539 4.07874023 5.11352539 -2.04125977 5.11352539 C-2.37125977 3.79352539 -2.70125977 2.47352539 -3.04125977 1.11352539 C-2.04125977 0.11352539 -2.04125977 0.11352539 0 0 Z M-3.04125977 3.11352539 C-3.04125977 3.77352539 -3.04125977 4.43352539 -3.04125977 5.11352539 C-7.66125977 5.11352539 -12.28125977 5.11352539 -17.04125977 5.11352539 C-17.04125977 4.78352539 -17.04125977 4.45352539 -17.04125977 4.11352539 C-15.08301282 3.94584675 -13.12465922 3.77941334 -11.16625977 3.61352539 C-9.53043945 3.47430664 -9.53043945 3.47430664 -7.86157227 3.33227539 C-6.25796412 3.20789581 -4.64968426 3.11352539 -3.04125977 3.11352539 Z " fill="#A1A1A1" transform="translate(185.041259765625,14.886474609375)"/>
<path d="M0 0 C5.94 0 11.88 0 18 0 C18 0.33 18 0.66 18 1 C16.02 1 14.04 1 12 1 C12 1.66 12 2.32 12 3 C14.31 3.33 16.62 3.66 19 4 C19 4.33 19 4.66 19 5 C12.4 5 5.8 5 -1 5 C-1 4.67 -1 4.34 -1 4 C-11.56 3.67 -22.12 3.34 -33 3 C-33 2.67 -33 2.34 -33 2 C-22.11 1.67 -11.22 1.34 0 1 C0 0.67 0 0.34 0 0 Z " fill="#5D5C5D" transform="translate(33,3)"/>
<path d="M0 0 C1.23556641 0.01740234 1.23556641 0.01740234 2.49609375 0.03515625 C3.32238281 0.04417969 4.14867187 0.05320313 5 0.0625 C5.63808594 0.07410156 6.27617187 0.08570312 6.93359375 0.09765625 C6.60359375 1.08765625 6.27359375 2.07765625 5.93359375 3.09765625 C18.80359375 3.59265625 18.80359375 3.59265625 31.93359375 4.09765625 C31.93359375 4.42765625 31.93359375 4.75765625 31.93359375 5.09765625 C16.75359375 5.09765625 1.57359375 5.09765625 -14.06640625 5.09765625 C-14.06640625 4.10765625 -14.06640625 3.11765625 -14.06640625 2.09765625 C-13.28394531 2.03707031 -12.50148437 1.97648438 -11.6953125 1.9140625 C-10.68339844 1.83027344 -9.67148438 1.74648438 -8.62890625 1.66015625 C-7.61957031 1.57894531 -6.61023438 1.49773438 -5.5703125 1.4140625 C-2.92346049 1.0795929 -2.54074258 0.1200729 0 0 Z " fill="#939293" transform="translate(197.06640625,0.90234375)"/>
<path d="M0 0 C3.96 0 7.92 0 12 0 C12 0.33 12 0.66 12 1 C18.6 1.33 25.2 1.66 32 2 C32 2.33 32 2.66 32 3 C9.60198398 4.11296057 -12.60004978 3.82581325 -35 3 C-35 2.67 -35 2.34 -35 2 C-17.675 1.505 -17.675 1.505 0 1 C0 0.67 0 0.34 0 0 Z " fill="#A09FA0" transform="translate(146,37)"/>
<path d="M0 0 C7.26 0 14.52 0 22 0 C21.67 1.65 21.34 3.3 21 5 C14.07 4.67 7.14 4.34 0 4 C0 2.68 0 1.36 0 0 Z " fill="#2E2D2D" transform="translate(0,29)"/>
<path d="M0 0 C1.06669922 0.00322266 2.13339844 0.00644531 3.23242188 0.00976562 C4.88661133 0.02233398 4.88661133 0.02233398 6.57421875 0.03515625 C7.69634766 0.03966797 8.81847656 0.04417969 9.97460938 0.04882812 C12.73703385 0.06058312 15.49934873 0.07701548 18.26171875 0.09765625 C18.26171875 1.08765625 18.26171875 2.07765625 18.26171875 3.09765625 C14.17844518 3.15573345 10.09527792 3.19127874 6.01171875 3.22265625 C4.27341797 3.24779297 4.27341797 3.24779297 2.5 3.2734375 C1.38496094 3.27988281 0.26992188 3.28632812 -0.87890625 3.29296875 C-1.90532227 3.30344238 -2.93173828 3.31391602 -3.98925781 3.32470703 C-6.75812413 3.09601736 -8.38246917 2.52198615 -10.73828125 1.09765625 C-7.09180065 0.25660845 -3.73877218 -0.01999343 0 0 Z " fill="#424242" transform="translate(291.73828125,37.90234375)"/>
<path d="M0 0 C14.19 0 28.38 0 43 0 C43 1.65 43 3.3 43 5 C39.7 5 36.4 5 33 5 C34.32 4.34 35.64 3.68 37 3 C37 2.34 37 1.68 37 1 C24.79 1 12.58 1 0 1 C0 0.67 0 0.34 0 0 Z " fill="#AAA9AA" transform="translate(267,11)"/>
<path d="M0 0 C15.84 0 31.68 0 48 0 C48 0.66 48 1.32 48 2 C43.05 2 38.1 2 33 2 C32.67 2.66 32.34 3.32 32 4 C31.01 3.34 30.02 2.68 29 2 C25.89791016 1.6303565 25.89791016 1.6303565 22.36328125 1.5859375 C21.06455078 1.54726563 19.76582031 1.50859375 18.42773438 1.46875 C17.05599427 1.43729483 15.68424939 1.40604749 14.3125 1.375 C12.92901215 1.33680803 11.54554777 1.29775558 10.16210938 1.2578125 C6.7748755 1.16339483 3.38764931 1.07781882 0 1 C0 0.67 0 0.34 0 0 Z " fill="#0A0A0A" transform="translate(112,34)"/>
<path d="M0 0 C-0.33 0.99 -0.66 1.98 -1 3 C-12.70134149 3.15956375 -24.31923512 2.66408409 -36 2 C-36 1.67 -36 1.34 -36 1 C-23.9934657 0.38678934 -12.02556648 -0.184693 0 0 Z " fill="#797979" transform="translate(242,0)"/>
<path d="M0 0 C4.95 0 9.9 0 15 0 C15 1.32 15 2.64 15 4 C9.72 4 4.44 4 -1 4 C-0.67 2.68 -0.34 1.36 0 0 Z " fill="#757575" transform="translate(295,32)"/>
<path d="M0 0 C1.20970459 0.00523682 2.41940918 0.01047363 3.66577148 0.01586914 C4.97094727 0.0190918 6.27612305 0.02231445 7.62084961 0.02563477 C9.00952213 0.03399138 10.39819401 0.04245634 11.78686523 0.05102539 C13.17944179 0.05603873 14.57202005 0.06060193 15.96459961 0.06469727 C19.38456394 0.07653105 22.80444367 0.09301659 26.22436523 0.11352539 C26.22436523 0.44352539 26.22436523 0.77352539 26.22436523 1.11352539 C17.31436523 1.11352539 8.40436523 1.11352539 -0.77563477 1.11352539 C-0.77563477 1.77352539 -0.77563477 2.43352539 -0.77563477 3.11352539 C-10.34563477 3.11352539 -19.91563477 3.11352539 -29.77563477 3.11352539 C-29.77563477 2.78352539 -29.77563477 2.45352539 -29.77563477 2.11352539 C-28.99325439 2.08846924 -28.21087402 2.06341309 -27.40478516 2.03759766 C-23.88238528 1.92202751 -20.36027916 1.7991259 -16.83813477 1.67602539 C-15.60643555 1.63670898 -14.37473633 1.59739258 -13.10571289 1.55688477 C-11.35097656 1.49404297 -11.35097656 1.49404297 -9.56079102 1.42993164 C-8.47677002 1.39327393 -7.39274902 1.35661621 -6.27587891 1.31884766 C-3.26308151 1.07143406 -3.11337543 0.12733922 0 0 Z " fill="#848384" transform="translate(29.775634765625,70.886474609375)"/>
<path d="M0 0 C4.95 0 9.9 0 15 0 C15 0.99 15 1.98 15 3 C9.72 3 4.44 3 -1 3 C-0.67 2.01 -0.34 1.02 0 0 Z M-1 3 C-1 3.66 -1 4.32 -1 5 C-5.29 5 -9.58 5 -14 5 C-14 4.67 -14 4.34 -14 4 C-12.20843648 3.83222817 -10.4167455 3.66581706 -8.625 3.5 C-7.62726563 3.4071875 -6.62953125 3.314375 -5.6015625 3.21875 C-3 3 -3 3 -1 3 Z " fill="#A5A5A5" transform="translate(183,11)"/>
<path d="M0 0 C6.93 0 13.86 0 21 0 C21 0.33 21 0.66 21 1 C17.04 1 13.08 1 9 1 C8.67 2.32 8.34 3.64 8 5 C5.36 5 2.72 5 0 5 C0 3.35 0 1.7 0 0 Z " fill="#727272" transform="translate(0,37)"/>
<path d="M0 0 C2.31 0.33 4.62 0.66 7 1 C7 1.66 7 2.32 7 3 C-0.38127251 4.24558974 -7.54311856 3.90502834 -15 3.5625 C-16.25167969 3.51029297 -17.50335938 3.45808594 -18.79296875 3.40429688 C-21.86228198 3.27543258 -24.93120129 3.14050459 -28 3 C-28 2.67 -28 2.34 -28 2 C-18.76 2 -9.52 2 0 2 C0 1.34 0 0.68 0 0 Z " fill="#262425" transform="translate(55,29)"/>
<path d="M0 0 C1.98 0 3.96 0 6 0 C6 0.66 6 1.32 6 2 C14.91 2 23.82 2 33 2 C33 2.33 33 2.66 33 3 C22.11 3 11.22 3 0 3 C0 2.01 0 1.02 0 0 Z " fill="#514F50" transform="translate(48,13)"/>
<path d="M0 0 C5.61 0 11.22 0 17 0 C16.67 0.99 16.34 1.98 16 3 C5.92395139 4.42689142 5.92395139 4.42689142 2 3 C1.34 2.01 0.68 1.02 0 0 Z " fill="#555455" transform="translate(147,29)"/>
<path d="M0 0 C3.96 0 7.92 0 12 0 C11.67 0.99 11.34 1.98 11 3 C8.03 3 5.06 3 2 3 C2 2.34 2 1.68 2 1 C1.34 0.67 0.68 0.34 0 0 Z " fill="#6D6D6D" transform="translate(277,29)"/>
<path d="M0 0 C0 1.32 0 2.64 0 4 C-2.97 4 -5.94 4 -9 4 C-8.67 3.01 -8.34 2.02 -8 1 C-5.07175348 0.02391783 -3.04386724 -0.08226668 0 0 Z " fill="#484848" transform="translate(310,6)"/>
<path d="M0 0 C7.92 0 15.84 0 24 0 C24 0.33 24 0.66 24 1 C16.74 1 9.48 1 2 1 C2 1.66 2 2.32 2 3 C1.01 2.67 0.02 2.34 -1 2 C-0.67 1.34 -0.34 0.68 0 0 Z " fill="#242223" transform="translate(30,73)"/>
<path d="M0 0 C1.05960938 0.00676758 1.05960938 0.00676758 2.140625 0.01367188 C3.88545275 0.02546125 5.630237 0.04339676 7.375 0.0625 C7.375 0.3925 7.375 0.7225 7.375 1.0625 C3.745 1.0625 0.115 1.0625 -3.625 1.0625 C-3.625 1.7225 -3.625 2.3825 -3.625 3.0625 C-5.275 3.0625 -6.925 3.0625 -8.625 3.0625 C-8.955 2.4025 -9.285 1.7425 -9.625 1.0625 C-6.55966836 -0.47016582 -3.35745728 -0.04026471 0 0 Z " fill="#262425" transform="translate(41.625,74.9375)"/>
<path d="M0 0 C2.31 0.33 4.62 0.66 7 1 C7 1.66 7 2.32 7 3 C4.69 3 2.38 3 0 3 C0 2.01 0 1.02 0 0 Z " fill="#767575" transform="translate(55,29)"/>
<path d="M0 0 C0 0.66 0 1.32 0 2 C-2.31 2 -4.62 2 -7 2 C-7.33 1.01 -7.66 0.02 -8 -1 C-3.375 -2.25 -3.375 -2.25 0 0 Z " fill="#191818" transform="translate(148,30)"/>
<path d="M0 0 C0.66 0.99 1.32 1.98 2 3 C1.01 4.485 1.01 4.485 0 6 C-1.32 5.67 -2.64 5.34 -4 5 C-4 3.68 -4 2.36 -4 1 C-2.68 0.67 -1.36 0.34 0 0 Z " fill="#1E1C1D" transform="translate(138,0)"/>
<path d="M0 0 C0.66 0.99 1.32 1.98 2 3 C1.01 4.485 1.01 4.485 0 6 C-1.32 5.67 -2.64 5.34 -4 5 C-4 3.68 -4 2.36 -4 1 C-2.68 0.67 -1.36 0.34 0 0 Z " fill="#1D1B1C" transform="translate(110,0)"/>
<path d="M0 0 C2.31 0 4.62 0 7 0 C7 0.99 7 1.98 7 3 C4.36 3 1.72 3 -1 3 C-0.67 2.01 -0.34 1.02 0 0 Z " fill="#5C5B5B" transform="translate(303,1)"/>
</svg>
