<?xml version="1.0" encoding="UTF-8"?>
<svg version="1.1" xmlns="http://www.w3.org/2000/svg" >
<path d="M0 0 C136.29 0 272.58 0 413 0 C413 40.26 413 80.52 413 122 C276.71 122 140.42 122 0 122 C0 81.74 0 41.48 0 0 Z " fill="#232323" transform="translate(0,0)"/>
<path d="M0 0 C4.29 0 8.58 0 13 0 C19.03134884 13.43345878 21.31911575 29.46629618 18 44 C17.814375 45.6396875 17.814375 45.6396875 17.625 47.3125 C16.52091812 53.82658308 13.95629333 59.08741335 11 65 C5.06 65 -0.88 65 -7 65 C-7 64.34 -7 63.68 -7 63 C-7.66 63 -8.32 63 -9 63 C-9 62.34 -9 61.68 -9 61 C-9.66 61 -10.32 61 -11 61 C-17.94826286 47.41930441 -17.03557566 31.5148808 -12.5625 17.3125 C-11.29963103 13.4105767 -9.96645422 9.61278799 -8 6 C-7.34 6 -6.68 6 -6 6 C-6 5.34 -6 4.68 -6 4 C-5.34 4 -4.68 4 -4 4 C-4 3.34 -4 2.68 -4 2 C-2.68 2 -1.36 2 0 2 C0 1.34 0 0.68 0 0 Z " fill="#000000" transform="translate(264,34)"/>
<path d="M0 0 C7.26 0 14.52 0 22 0 C22.33 2.97 22.66 5.94 23 9 C23.62787571 11.34406932 24.29508733 13.67793475 25 16 C25.34357235 17.53941718 25.67647388 19.08124546 26 20.625 C26.71484547 23.92557555 27.65629035 26.89267143 29 30 C30.0109803 32.96975463 30.98369688 35.94891689 31.9375 38.9375 C32.70722567 41.15612104 33.57493884 43.34152396 34.5 45.5 C36 49 36 49 36.84375 51.703125 C38.25623285 55.73060989 40.07707375 59.44595025 42 63.25 C42.35578125 63.96929687 42.7115625 64.68859375 43.078125 65.4296875 C45.11843424 69.50517063 45.11843424 69.50517063 48 73 C43.57504611 73.14552459 39.15000088 73.2877593 34.72485352 73.42724609 C33.22677926 73.47489538 31.72873087 73.52336688 30.23071289 73.57275391 C28.04840687 73.64454511 25.86601751 73.71314245 23.68359375 73.78125 C22.37962646 73.82314453 21.07565918 73.86503906 19.73217773 73.90820312 C13.15595118 74.03577167 6.57746375 74 0 74 C0 49.58 0 25.16 0 0 Z " fill="#000000" transform="translate(0,48)"/>
<path d="M0 0 C4.95 0 9.9 0 15 0 C17.55372528 9.91446286 15.95587516 15.68989381 12 25 C12.66 25.66 13.32 26.32 14 27 C9.05 27 4.1 27 -1 27 C-2.12595798 19.11829411 -2.12595798 19.11829411 -1.9140625 15.95703125 C-1.87023437 15.27576172 -1.82640625 14.59449219 -1.78125 13.89257812 C-1.7296875 13.20615234 -1.678125 12.51972656 -1.625 11.8125 C-1.58117187 11.11447266 -1.53734375 10.41644531 -1.4921875 9.69726562 C-1.26044101 6.31441057 -0.82608585 3.30434338 0 0 Z " fill="#010101" transform="translate(222,36)"/>
<path d="M0 0 C6.6 0 13.2 0 20 0 C19.34 1.32 18.68 2.64 18 4 C17.85993374 6.63324571 17.8110066 9.1257044 17.875 11.75 C17.91625 14.1425 17.9575 16.535 18 19 C12.06 19 6.12 19 0 19 C0 12.73 0 6.46 0 0 Z " fill="#020202" transform="translate(0,0)"/>
<path d="M0 0 C0.66 0 1.32 0 2 0 C2.125 6.75 2.125 6.75 1 9 C0.01 9 -0.98 9 -2 9 C-2.66 8.34 -3.32 7.68 -4 7 C-4 7.66 -4 8.32 -4 9 C-4.99 9 -5.98 9 -7 9 C-7.33 8.01 -7.66 7.02 -8 6 C-5.86284934 3.64913427 -3.8687097 2.3387312 -1 1 C-0.67 0.67 -0.34 0.34 0 0 Z " fill="#585858" transform="translate(411,93)"/>
<path d="M0 0 C0.66 1.32 1.32 2.64 2 4 C2.66 4 3.32 4 4 4 C3.67 5.32 3.34 6.64 3 8 C1.68 7.67 0.36 7.34 -1 7 C-1.33 5.35 -1.66 3.7 -2 2 C-1.34 2 -0.68 2 0 2 C0 1.34 0 0.68 0 0 Z " fill="#383838" transform="translate(407,98)"/>
<path d="M0 0 C0.99 0.33 1.98 0.66 3 1 C2.01 1.33 1.02 1.66 0 2 C0 1.34 0 0.68 0 0 Z M-5 2 C-3.35 2 -1.7 2 0 2 C-0.33 2.99 -0.66 3.98 -1 5 C-3.0625 5.6875 -3.0625 5.6875 -5 6 C-5.33 5.34 -5.66 4.68 -6 4 C-5.67 3.34 -5.34 2.68 -5 2 Z " fill="#000000" transform="translate(410,92)"/>
</svg>
