<?xml version="1.0" encoding="UTF-8"?>
<svg version="1.1" xmlns="http://www.w3.org/2000/svg" >
<path d="M0 0 C72.6 0 145.2 0 220 0 C220 75.57 220 151.14 220 229 C147.4 229 74.8 229 0 229 C0 153.43 0 77.86 0 0 Z " fill="#FAFCFD" transform="translate(0,0)"/>
<path d="M0 0 C72.6 0 145.2 0 220 0 C220 75.57 220 151.14 220 229 C147.4 229 74.8 229 0 229 C0 153.43 0 77.86 0 0 Z M87.31933594 19.39868164 C84.74343466 19.81355742 82.16507281 20.20930434 79.5859375 20.60351562 C77.92690267 20.86604837 76.2680416 21.12968205 74.609375 21.39453125 C73.46852448 21.56816948 73.46852448 21.56816948 72.30462646 21.74531555 C64.11337203 23.04128493 64.11337203 23.04128493 57.66015625 27.71875 C56.69167063 30.60521694 56 32.93577772 56 36 C53.1875 36.46875 53.1875 36.46875 50.375 36.9375 C49.33085938 37.11152344 48.28671875 37.28554688 47.2109375 37.46484375 C45.04734461 37.82544257 42.87025428 38.11190877 40.6875 38.328125 C39.800625 38.54984375 38.91375 38.7715625 38 39 C37.00496801 40.71184198 37.00496801 40.71184198 36.625 42.8125 C35.734375 44.9921875 35.734375 44.9921875 34 47 C28.76217536 48.93952921 23.47025129 49.93600607 18 51 C17.01 51.495 17.01 51.495 16 52 C14.99600986 94.83948704 19.41971961 136.10995451 49.88671875 168.734375 C51.80793918 170.79409376 53.62568811 172.90699546 55.4375 175.0625 C67.74180635 189.07263064 83.79695337 199.97915489 100 209 C100.98742187 209.57621094 101.97484375 210.15242187 102.9921875 210.74609375 C108.02382415 212.84369812 111.58746984 212.52668058 116.65625 210.63671875 C117.94696117 210.00598287 119.22799113 209.35515 120.5 208.6875 C121.18924561 208.33357178 121.87849121 207.97964355 122.58862305 207.61499023 C129.67223357 203.84992972 136.04362779 199.24054613 142.34375 194.29785156 C143.79891222 193.15757409 145.27304822 192.04159722 146.75 190.9296875 C161.04483344 179.81632613 174.3478428 166.3631163 184 151 C184.60013916 150.04504639 184.60013916 150.04504639 185.21240234 149.07080078 C195.56658821 132.12415635 200.65132309 112.59605477 203 93 C203.0913623 92.27756104 203.18272461 91.55512207 203.27685547 90.81079102 C204.08523489 83.75245464 204.28628764 76.69403769 204.35009766 69.59301758 C204.36685501 68.22663579 204.394396 66.86034825 204.43212891 65.49438477 C204.48667946 63.49807182 204.50559849 61.50088469 204.5234375 59.50390625 C204.54325684 58.32642822 204.56307617 57.1489502 204.58349609 55.93579102 C204.29463467 52.81461471 204.29463467 52.81461471 201.62573242 51.13916016 C199.03287405 50.01426223 196.71493083 49.31475565 193.9375 48.8125 C192.68259766 48.57466797 192.68259766 48.57466797 191.40234375 48.33203125 C188.74380774 47.90872672 188.74380774 47.90872672 185 48 C184.71125 47.071875 184.4225 46.14375 184.125 45.1875 C183.1125 41.90208333 183.1125 41.90208333 181 39 C177.77074947 37.9705007 177.77074947 37.9705007 174.0625 37.3125 C172.81597656 37.06113281 171.56945312 36.80976562 170.28515625 36.55078125 C167.06205044 35.91732513 167.06205044 35.91732513 164 36 C163.72736328 34.95199219 163.72736328 34.95199219 163.44921875 33.8828125 C163.07216797 32.51769531 163.07216797 32.51769531 162.6875 31.125 C162.44386719 30.22007813 162.20023438 29.31515625 161.94921875 28.3828125 C161.13330148 25.67886681 161.13330148 25.67886681 158 24 C155.35257957 23.42922084 152.74954409 22.9468671 150.078125 22.52734375 C148.91080841 22.3353817 148.91080841 22.3353817 147.71990967 22.13954163 C145.2310002 21.73200645 142.74057556 21.33471216 140.25 20.9375 C138.58843486 20.66667006 136.9269751 20.39519278 135.265625 20.12304688 C118.50625755 17.39029552 104.13236354 16.67760042 87.31933594 19.39868164 Z " fill="#037AC2" transform="translate(0,0)"/>
<path d="M0 0 C6.43572723 0 10.79921186 0.73941758 16.8125 2.5 C17.7317627 2.76844727 18.65102539 3.03689453 19.59814453 3.31347656 C37.39058121 8.69992459 59.19704274 17.12810974 69.14453125 33.93359375 C71.31349453 39.17277902 70.58670479 45.29037831 68.625 50.5 C65.43898085 56.90629658 59.725395 63.30006248 53.18359375 66.28515625 C52.10271484 66.63900391 52.10271484 66.63900391 51 67 C52.0828125 67.99 52.0828125 67.99 53.1875 69 C58.14187347 74.08177164 61.29535333 78.45117124 61.5625 85.75 C60.7259257 102.86759725 50.50631942 117.15498321 39.41015625 129.43408203 C38.03589674 130.96013821 36.68816099 132.50623789 35.34375 134.05859375 C25.84820495 144.88586314 14.82793736 155.25345517 2 162 C1.34 162 0.68 162 0 162 C0 108.54 0 55.08 0 0 Z " fill="#057BC2" transform="translate(115,35)"/>
<path d="M0 0 C0 53.46 0 106.92 0 162 C-20.6627323 151.66863385 -29.21700296 121.29760478 -36 101 C-36.66 101 -37.32 101 -38 101 C-39.62356346 102.96937661 -41.13559566 104.93345148 -42.625 107 C-43.04523437 107.57234375 -43.46546875 108.1446875 -43.8984375 108.734375 C-44.93805801 110.15203933 -45.96977591 111.57549262 -47 113 C-48.75390625 112.94921875 -48.75390625 112.94921875 -51 112 C-52.51732118 109.60184824 -53.74125885 107.36489189 -54.9375 104.8125 C-55.28594971 104.08780518 -55.63439941 103.36311035 -55.9934082 102.61645508 C-59.16058562 95.90115817 -61.8035177 89.09575469 -64 82 C-64.21253418 81.31663574 -64.42506836 80.63327148 -64.64404297 79.92919922 C-68.71847121 66.54435817 -70.88206874 52.93827786 -72 39 C-72.08314453 38.08226807 -72.16628906 37.16453613 -72.25195312 36.21899414 C-72.6009012 29.7174461 -72.6009012 29.7174461 -69.8046875 26.37890625 C-68.35449219 25.47978516 -68.35449219 25.47978516 -66.875 24.5625 C-65.92367187 23.94503906 -64.97234375 23.32757813 -63.9921875 22.69140625 C-61.0394741 21.02231369 -58.03835982 19.50599487 -55 18 C-54.98598145 19.19822388 -54.98598145 19.19822388 -54.97167969 20.4206543 C-54.66053947 41.68342767 -53.06090342 61.75623967 -46 82 C-45.34 82 -44.68 82 -44 82 C-41.67986301 78.51979452 -41.83822631 77.82729349 -42.25 73.8125 C-42.35699219 72.64332031 -42.46398437 71.47414063 -42.57421875 70.26953125 C-42.79672824 68.01574291 -43.02407331 65.76247974 -43.25244141 63.50927734 C-44.48966925 51.07140551 -45.24370152 38.68649355 -45.375 26.1875 C-45.40086182 24.92357422 -45.42672363 23.65964844 -45.45336914 22.35742188 C-45.4558667 21.18115234 -45.45836426 20.00488281 -45.4609375 18.79296875 C-45.46915527 17.7464917 -45.47737305 16.70001465 -45.48583984 15.62182617 C-45 13 -45 13 -43.12573242 11.2109375 C-40.77922624 9.87423477 -38.4508144 8.80190431 -35.9375 7.8125 C-35.08027344 7.46832031 -34.22304687 7.12414063 -33.33984375 6.76953125 C-31 6 -31 6 -28 6 C-27.98541748 6.71502686 -27.97083496 7.43005371 -27.95581055 8.16674805 C-27.49228145 55.21903761 -27.49228145 55.21903761 -18 101 C-18 68.33 -18 35.66 -18 2 C-11 0 -11 0 0 0 Z " fill="#027AC2" transform="translate(105,35)"/>
<path d="M0 0 C0.33 0 0.66 0 1 0 C1 51.15 1 102.3 1 155 C-34.97 155 -70.94 155 -108 155 C-105.29580379 153.19720253 -102.57959764 151.79344669 -99.6574707 150.38720703 C-83.66089788 142.65829538 -69.45020077 132.24628902 -56.40625 120.21875 C-53.16433139 117.22944842 -49.83986451 114.33535007 -46.51953125 111.43359375 C-23.6669874 89.36051652 -9.35498795 61.21483483 -4 30 C-3.87141602 29.25476074 -3.74283203 28.50952148 -3.61035156 27.74169922 C-2.03889808 18.52928427 -0.60830388 9.33431816 0 0 Z " fill="#FDFEFE" transform="translate(219,74)"/>
<path d="M0 0 C0.33 0 0.66 0 1 0 C1.04487549 0.62753174 1.08975098 1.25506348 1.13598633 1.90161133 C3.61493599 35.79499658 8.96336213 68.27326529 30 96 C30.64710937 96.85851562 31.29421875 97.71703125 31.9609375 98.6015625 C37.25801003 105.41208433 43.08956007 111.72405775 49 118 C49.61746094 118.66 50.23492187 119.32 50.87109375 120 C66.52491292 136.21690619 87.16243926 150.37905491 108 159 C108 159.33 108 159.66 108 160 C72.36 160 36.72 160 0 160 C0 107.2 0 54.4 0 0 Z " fill="#FDFEFE" transform="translate(0,69)"/>
<path d="M0 0 C35.31 0 70.62 0 107 0 C107 15.18 107 30.36 107 46 C106.67 46 106.34 46 106 46 C106 44.35 106 42.7 106 41 C105.23816406 40.89042969 104.47632813 40.78085937 103.69140625 40.66796875 C86.77686821 38.07060523 86.77686821 38.07060523 83.55859375 34.3203125 C82.12916848 31.91967494 81 29.83855883 81 27 C79.73542969 26.79503906 78.47085938 26.59007813 77.16796875 26.37890625 C75.50779137 26.10689979 73.84763627 25.83475728 72.1875 25.5625 C71.35412109 25.42779297 70.52074219 25.29308594 69.66210938 25.15429688 C68.85966797 25.02216797 68.05722656 24.89003906 67.23046875 24.75390625 C66.49207764 24.63345947 65.75368652 24.5130127 64.99291992 24.38891602 C63 24 63 24 60 23 C58.70103155 19.9794535 57.69908802 16.90773495 56.671875 13.78515625 C55.23306704 10.77796954 55.23306704 10.77796954 52.1875 9.7734375 C50.79780285 9.48437034 49.40031293 9.2322535 48 9 C46.52515137 8.72192505 46.52515137 8.72192505 45.02050781 8.43823242 C41.43554632 7.77867616 37.84477125 7.1662286 34.25 6.5625 C32.32764526 6.23536011 32.32764526 6.23536011 30.36645508 5.90161133 C20.25646354 4.1894609 10.13567738 2.55253838 0 1 C0 0.67 0 0.34 0 0 Z " fill="#FCFDFE" transform="translate(113,0)"/>
<path d="M0 0 C35.31 0 70.62 0 107 0 C107 0.33 107 0.66 107 1 C106.07477539 1.13051758 105.14955078 1.26103516 104.19628906 1.39550781 C80.18997966 4.78587361 80.18997966 4.78587361 56.375 9.30078125 C53 10 53 10 51 10 C50.82984375 10.67546875 50.6596875 11.3509375 50.484375 12.046875 C50.24203125 12.93890625 49.9996875 13.8309375 49.75 14.75 C49.51796875 15.63171875 49.2859375 16.5134375 49.046875 17.421875 C47.78055166 20.54043249 46.69474063 21.96892276 44 24 C41.41181282 24.75973074 39.07385827 25.31781012 36.4375 25.75 C35.76525391 25.87503906 35.09300781 26.00007813 34.40039062 26.12890625 C31.55893857 26.64245568 28.8923837 27 26 27 C25.731875 27.9075 25.46375 28.815 25.1875 29.75 C24.06312161 32.82724613 23.18674127 34.61152525 21 37 C18.82348633 37.82128906 18.82348633 37.82128906 16.33203125 38.265625 C14.99301758 38.51699219 14.99301758 38.51699219 13.62695312 38.7734375 C12.69818359 38.93070313 11.76941406 39.08796875 10.8125 39.25 C9.87212891 39.42273437 8.93175781 39.59546875 7.96289062 39.7734375 C5.64417927 40.1971614 3.32380573 40.60534958 1 41 C1 42.65 1 44.3 1 46 C0.67 46 0.34 46 0 46 C0 30.82 0 15.64 0 0 Z " fill="#FCFDFE" transform="translate(0,0)"/>
<path d="M0 0 C6.57774524 1.97332357 11.95577019 3.6646444 17.8125 6.875 C18.44091797 7.20113281 19.06933594 7.52726562 19.71679688 7.86328125 C23.80441116 10.06331658 26.83175949 12.5448024 30 16 C30.33 16.33 30.66 16.66 31 17 C31.625 20.0625 31.625 20.0625 31 24 C25.39045797 31.42626871 15.70393071 36.48659797 8.01171875 41.55859375 C7.33584717 42.00517334 6.65997559 42.45175293 5.96362305 42.91186523 C4 44 4 44 0 45 C0 30.15 0 15.3 0 0 Z " fill="#FCFDFE" transform="translate(134,56)"/>
<path d="M0 0 C2.75329021 1.79562405 4.52627461 3.05254922 6 6 C7.4671087 17.24783337 0.0091787 27.15030713 -6.421875 35.70703125 C-9.72753914 39.98531397 -13.14821435 44.19849876 -17 48 C-17.33 48 -17.66 48 -18 48 C-18 33.81 -18 19.62 -18 5 C-5.01432665 -0.9025788 -5.01432665 -0.9025788 0 0 Z " fill="#FBFCFD" transform="translate(151,115)"/>
<path d="M0 0 C0.99 0.33 1.98 0.66 3 1 C2.34 1.66 1.68 2.32 1 3 C0.53603307 5.89223503 0.53603307 5.89223503 0.375 9.125 C0.30023438 10.22070312 0.22546875 11.31640625 0.1484375 12.4453125 C0.09945312 13.28835937 0.05046875 14.13140625 0 15 C-0.33 15 -0.66 15 -1 15 C-1.02685412 12.68756208 -1.04632841 10.3750373 -1.0625 8.0625 C-1.07410156 6.77472656 -1.08570312 5.48695312 -1.09765625 4.16015625 C-1 1 -1 1 0 0 Z " fill="#368CC9" transform="translate(88,36)"/>
</svg>
